<svg xmlns="http://www.w3.org/2000/svg" width="262" height="100" viewBox="0 0 262 100"><g><g><path fill="#fff" d="M236.335 45.739c1.405 2.003 3.446 2.876 5.776 3.115 1.325.136 1.946 1.133 1.23 2.348-1.197 2.033-2.856 3.503-5.264 3.93-2.844.503-5.436-.028-7.56-2.075-1.666-1.607-1.649-2.251-.124-3.972.812-.918 1.764-1.688 2.695-2.476.78-.659 1.549-1.322 2.095-2.287zm12.701 3.834c1.693.753 3.494.964 5.303.857 2.154-.126 4.07-.944 5.662-2.455.505-.48.88-1.156 1.678-1.242.289-.03.222-.238.196-.399a6.507 6.507 0 0 0-.193-.894c-.383-1.268-1.486-1.614-2.462-.696-.753.709-1.632 1.107-2.57 1.445-1.874.674-3.858-.007-4.936-1.679a30.78 30.78 0 0 0-1.438-2.069c-.724-.944-1.433-1.158-2.545-.72-.426.167-.523.003-.654-.312-.282-.682-.603-1.348-.865-2.037-.164-.433-.393-.642-.884-.65-.945-.016-1.86-.248-2.783-.448-2.43-.53-4.59-.048-6.39 1.77a52.732 52.732 0 0 1-2.682 2.502c-.844.74-1.737 1.662-2.846 1.687-1.749.04-2.754.962-3.644 2.236-.1.144-.25.253-.375.38-.868.901-1.738 1.812-2.319 2.926-.395.76-.926 1.391-1.487 2.015-1.954 2.175-4.186 3.932-7.021 4.84-.792.253-1.389.113-1.899-.52-.16-.198-.336-.383-.511-.567-1.293-1.366-2.643-2.662-4.44-3.468.757-.469 1.761-.253 2.22-.77.676-.762 1.53-1.085 2.298-1.613.94-.644 1.86-1.405 2.741-2.171 1.295-1.126 2.54-2.287 3.335-3.842.788-1.542.705-3.214-.39-4.378-2.217-2.357-4.95-4.056-8.068-5.071-2.857-.93-5.747-.495-8.631-.223-.663.063-1.16.498-1.56 1.019-.607.787-.805 1.658-.988 2.66-.309 1.679.41 2.73 1.379 3.813.254.284.484.352.821.075.36-.294.834-.38 1.284-.46 2.953-.515 5.886-.377 8.794.323.541.131 1.075.317 1.539.651.243.175.402.346.26.698-.364.908-.782 1.78-1.56 2.407-1.25 1.007-2.527 1.98-4.103 2.442-.295.087-.432.317-.615.532-.91 1.075-2 1.807-3.493 1.663-.74-.071-1.398.116-2.04.488-1.32.765-2.618 1.585-4.09 2.039-.729.225-1.485.354-2.216.574-1.015.305-1.544 1.037-1.635 2.077-.089 1.024.084 2.031.236 3.04.035.236.175.351.355.455.885.506 1.748 1.049 2.657 1.507.94.474 1.357.392 1.968-.443.85-1.163 1.947-1.909 3.317-2.307a25.768 25.768 0 0 1 2.519-.616c1.826-.339 3.313.049 4.312 1.772.673 1.16 1.768 1.756 3.096 1.823 2.897.144 5.536-.615 7.885-2.351a31.976 31.976 0 0 0 3.194-2.673c1.388 3.579 4.138 5.17 7.71 5.586 4.316.503 8.246-.601 11.795-3.028 2.95-2.018 5.01-4.618 4.899-8.503zm-140.67 40.065c-.233-2.109-.115-3.953.645-5.742 1.263-2.971 2.483-5.96 3.722-8.942.075-.181.157-.36.305-.514-1.05 5.144-2.414 10.188-4.671 15.198zM91.78 46.78c-1.176-.077-2.55-.555-3.797-1.399-.156-.106-.395-.207-.134-.454 1.15-1.084 2.1-2.428 3.905-2.574 1.167-.095 2.688.596 3.18 1.654.31.663.254 1.292-.328 1.798-.713.62-1.529.994-2.826.975zm80.482.803c-1.746 1.56-3.603 2.87-5.824 3.54-.412.125-.633.303-.847.63-1.349 2.063-4.351 2.991-6.533 2.036-1.995-.874-2.574-3.532-1.14-5.186 1.035-1.19 2.388-1.875 3.819-2.435a22.62 22.62 0 0 0 1.81-.795c.723-.358 1.488-.218 2.212.075.352.142.688.33 1.015.526 1.674 1.005 3.378 1.9 5.488 1.61zM37.653 12.343c-.41 1.607-.935 3.05-1.102 4.567-.157 1.414-.332 2.846.36 4.19.107.206.076.307-.121.42-1.528.872-2.253 2.293-2.575 3.938-.278 1.428-.904 2.74-1.258 4.14-.194.764-.465 1.507-.659 2.27-.108.42-.32.51-.741.553-2.142.221-4.26-.368-6.398-.151-.558.056-.417-.29-.278-.576.439-.91 1.153-1.613 1.821-2.343 1.187-1.295 2.49-2.503 2.838-4.342.051-.266.295-.337.475-.463 1.161-.81 1.993-1.854 2.495-3.195.462-1.242.789-2.521 1.179-3.784.628-2.03 1.508-3.903 3.497-4.987.111-.06.224-.114.467-.236zM107.271 100c.08-.058.15-.14.24-.168 1.173-.357 1.828-1.11 1.94-2.361.071-.776.451-1.458.917-2.073.677-.895.977-1.885.87-3.004-.042-.448.02-.869.43-1.155.469-.327.581-.773.557-1.332-.022-.498.01-1.079.546-1.329.431-.2.668-.533.907-.89.88-1.312 1.359-2.784 1.694-4.309.621-2.835.832-5.744 1.529-8.568.412-1.678.512-3.46 1.295-5.01.511-1.01.774-2.026.881-3.114.14-1.428.29-2.893 1.094-4.092.749-1.118.955-2.326 1.178-3.58.188-1.057.218-2.23 1.476-2.727.08-.032.135-.15.185-.238 1.553-2.72 3.987-4.442 6.67-5.884 1.076-.578 2.317-.858 3.278-1.619 1.423-1.125 2.69-.899 3.956.201.076.067.166.119.246.181 1.795 1.408 1.851 3.435.164 4.969-1.054.958-2.308 1.337-3.694 1.437-1.092.08-1.939.57-2.394 1.622-.67 1.544-.466 3.066.02 4.618.345 1.106 1.218 1.417 2.138 1.853.73.346 1.287.322 1.92-.058a28.45 28.45 0 0 1 1.195-.68c.515-.276 1.034-.692 1.619-.606.893.132 1.526-.252 2.141-.77.586-.492 1.176-.978 1.743-1.491 1.18-1.073 2.543-1.867 3.977-2.525 1.479-.677 3.072-1.096 4.43-2.035.241-.169.38-.17.481.168.456 1.53 1.512 2.633 2.677 3.642 1.042.901 2.223 1.143 3.547.677.428-.151.887-.217 1.336-.305 1.617-.317 3.308-.272 4.848-.969.186-.084.347-.02.52.013.79.155 1.458-.107 2.03-.638a12.55 12.55 0 0 0 1.801-2.074 62.61 62.61 0 0 1 1.549-2.18c.392-.52.863-.99 1.591-.867 1.763.3 3.11-.456 4.346-1.673l.22.746c.546 1.855 1.383 3.562 2.655 5.028 1.229 1.416 2.65 2.528 4.607 2.752 1.325.15 2.646.12 3.942-.157 2.047-.437 4.234-.804 5.343-2.841.783-1.439 1.552-2.924 2.029-4.51.096-.32.787-1.103-.377-1.087-.366-.793-.797-.26-1.141-.015-.808.577-1.561 1.232-2.372 1.806-1.107.785-2.288 1.419-3.683 1.555-1.549.151-2.667-.773-3.786-1.572-.726-.52-.511-1.495-.54-2.294-.045-1.225.16-2.437.29-3.653.064-.589.158-1.38-.425-1.59-1.035-.373-1.971-1.06-3.157-1.034-1.138.025-1.944.67-2.8 1.265-.25.173-.492.592-.84.317-.27-.215-.064-.563.038-.851.366-1.037.192-2.011-.392-2.917-.747-1.158-1.874-1.776-3.165-2.108-2.104-.54-4.023.093-5.901.974-1.472.69-2.889 1.507-4.455 1.99-.269.084-.534.206-.807.047-.58-.335-1.089-.134-1.56.214-1.242.915-2.373 1.973-3.558 2.95-1.293 1.066-2.596 2.162-3.737 3.46-1.669 1.9-3.85 3.255-6.193 4.255-1.198.512-2.531.509-3.828.735.934-1.151 1.923-2.21 2.742-3.405 1.79-2.614 1.222-5.683-1.378-7.46-.253-.172-.5-.36-.718-.57-.938-.904-2.074-1.257-3.302-.925-2.714.735-5.409 1.547-7.916 2.864-.178.093-.409.202-.48.363-.509 1.138-1.515 1.516-2.581 1.959-1.063.44-1.817 1.385-2.492 2.32-.415.576-.842 1.074-1.609 1.071.193-1.894.328-3.8.6-5.687.225-1.573.467-3.13 1.762-4.352 1.08-1.017 1.09-2.45.311-3.73-.29-.477-.65-.912-.969-1.372-1.278-1.834-3.318-1.974-4.85-.355-1.568 1.658-2.788 3.58-4.057 5.45-1.643 2.423-3.949 4.095-6.27 5.72-1.136.795-1.905 1.824-2.804 2.799a12.033 12.033 0 0 0-1.743 2.386c-.16.29-.542.357-.868.434-.507.12-.955.336-1.3.746-.45.533-.93 1.02-1.703 1.032-.255.005-.411.203-.521.406-.407.747-1.091 1.027-1.876 1.153-.857.137-1.683.353-2.487.703-3.517 1.527-7 1.583-10.442-.282-.836-.454-1.42-1.052-1.683-1.963-.452-1.57-.152-3.065.407-4.551.235-.625.517-.695 1.056-.342.913.599 1.823 1.217 2.988 1.242 1.15.024 2.274.19 3.368.585.744.268 1.504.145 2.245-.121 1.192-.429 2.2-1.168 3.208-1.9.414-.301.833-.576 1.32-.751 1.316-.472 1.96-1.434 2.126-2.808.093-.78-.111-1.634.295-2.33.641-1.104.168-1.942-.482-2.767-.795-1.01-1.9-1.618-3.044-2.119-.805-.352-1.481-1.03-2.425-1.041-2.257-.028-4.467.2-6.59 1.061-1.72.699-3.029 1.935-4.38 3.14-.71.63-1.412 1.434-2.58.895-.3-.139-.655.042-.94.22-.671.422-1.281.927-1.836 1.49-.485.493-.56 1.068-.182 1.67.203.324.416.641.622.963.091.142.252.248.173.467-.52 1.446-.538 3.106-2.032 4.114-.86.579-1.556 1.393-2.368 2.047-.99.796-1.975 1.608-3.253 1.942-2.2.574-2.863-.052-2.376-2.27.062-.284.263-.566.022-.872-.29-.367-.122-.722.077-1.062.313-.532.678-1.06 1.173-1.397 1.09-.74 1.334-1.847 1.554-3.016.186-.99-.11-1.756-.898-2.346a2.12 2.12 0 0 1-.752-1.004c-.374-.978-1.763-1.695-2.405-1.167-.681.562-1.506.912-2.1 1.616-.655.776-1.48 1.483-2.509 1.643-.943.147-1.932.055-2.897 0-.643-.035-1.27-.884-.948-1.273.43-.521.595-1.179.997-1.678.515-.64.86-1.338.977-2.123.45-3.017-.283-4.44-2.679-5.058-2.864-.739-4.252.013-5.212 2.808-.42 1.223-.932 2.416-1.218 3.684-.038.17-.1.356-.208.487-1.314 1.599-2.365 3.38-3.52 5.087-1.597 2.361-3.166 4.715-5.674 6.281-1.112.694-2.18 1.045-3.452.745-.419-.099-.851-.298-1.273-.134-.762.298-1.213-.107-1.615-.639-.233-.306-.431-.673-.827-.754-.674-.137-.957-.625-1.177-1.182-.274-.697-.336-1.433-.331-2.177.024-3.7.837-7.266 1.734-10.83.237-.94.673-1.384 1.607-1.59 2.444-.535 4.798-1.545 7.414-1.024.65.13 1.068-.614 1.295-1.223.204-.554-.146-.919-.578-1.199-.558-.361-1.192-.472-1.832-.42-1.64.13-3.238-.276-4.864-.35-1.48-.067-1.524-.215-.988-1.605.761-1.975 1.424-3.977 1.824-6.06.107-.563.158-1.138-.175-1.628-.228-.333-.179-.567-.005-.89a15.54 15.54 0 0 0 1.568-4.365c.529-2.715 1.248-5.366 2.265-7.914 1.344-3.362.717-6.485-.744-9.585-.114-.24-.231-.451-.546-.449-1.238.012-2.466.093-3.456.954-.924.804-1.756 1.696-2.418 2.741-.34.537-.727 1.047-1.126 1.542-1.271 1.575-2.951 2.157-4.938 2.065-1.15-.053-2.084.832-2.166 1.97a32.264 32.264 0 0 0-.09 2.213c-.004 2.054-.354 3.985-1.205 5.912-1.4 3.171-2.9 6.28-4.63 9.28-.7 1.215-1.261 2.496-1.872 3.755-.36.743-.934 1.44-1.748 1.42-.66-.017-1.36-.052-2.04-.16-.868-.137-1.827-.318-2.583.293-.748.604-1.432 1.31-1.905 2.17-.405.737-.353 1.46.167 2.145a4.938 4.938 0 0 0 2.45 1.745c.4.131.577.195.295.694-2.325 4.129-4.89 8.107-7.452 12.089-.613.951-1.342 1.792-2.34 2.37-.582.336-1.121.397-1.71-.003-.524-.357-1.095-.647-1.645-.967-.779-.45-1.027-.408-1.537.34a2.29 2.29 0 0 0-.36.832 6.836 6.836 0 0 1-.797 2.136c-.232.407-.274.81-.124 1.246.713 2.077 2.274 3.05 4.482 2.874 1.268-.1 2.337-.662 3.398-1.275 2.657-1.537 4.403-3.86 5.394-6.695a7.299 7.299 0 0 1 1.528-2.576 327.524 327.524 0 0 1 3.146-3.44c1.69-1.812 2.771-4.018 3.933-6.162.41-.758.853-1.135 1.732-1.132 1.961.006 3.923-.04 5.882-.12.708-.029.783.175.61.808-1.024 3.74-1.501 7.537-1.095 11.417.071.675.204 1.354.712 1.807.474.424.385.806.2 1.287-.177.468-.562.967-.349 1.447.482 1.087.876 2.233 1.72 3.127 1.28 1.354 2.884 2.026 4.706 2.049 2.463.03 4.824-.31 6.623-2.31.812-.902 1.962-1.255 3.132-1.46.708-.123 1.332-.393 1.773-.953.334-.425.74-.766 1.11-1.149 1.117-1.154 2.178-2.357 3.042-3.72l2.796-4.415c.129.173.21.27.278.374 1.574 2.393 3.788 3.193 6.546 2.62a16.95 16.95 0 0 1 2.575-.314c.811-.042 1.616-.072 2.291-.667.267-.234.664-.35 1.071-.35-.025.335-.236.533-.38.76a14.98 14.98 0 0 0-1.531 3.07c-.6 1.682-.872 3.396-.508 5.177.42 2.06 1.886 3.286 3.992 3.28 2.693-.006 4.908-1.23 6.9-2.876 1.253-1.034 2.374-2.227 3.551-3.345l.111.113c.056.196.098.395.148.592.77 3.064 2.374 5.397 5.582 6.28 1.3.357 2.612.676 3.934.943 2.51.51 4.978.388 7.305-.778.727-.364 1.436-.612 2.253-.528.306.031.709.02.869-.206.533-.757 1.44-.994 2.07-1.59.427-.405.89-.682 1.454-.775.679-.113 1.264-.418 1.771-.847 2.53-2.143 5.048-4.316 7.087-6.942 1.49-1.918 3.342-3.409 5.2-4.911.362-.293.767-.545 1.416-.618-.704 1.223-.728 2.425-.642 3.658.21 2.994-.31 5.878-1.354 8.684-.56 1.506-1.373 2.885-2.054 4.33-1.816 3.843-3.32 7.822-4.924 11.756-.96 2.356-1.905 4.719-3.072 6.986-.341.665-1.013 1.114-1.264 1.772-.685 1.784-1.482 3.518-2.205 5.284-1.022 2.504-1.748 5.051-1.298 7.805.069.416.098.86-.024 1.29-.246.882.022 1.642.53 2.37.433.627 1.121.93 1.665 1.412z"/></g></g></svg>