<svg xmlns="http://www.w3.org/2000/svg" width="39" height="47" viewBox="0 0 39 47"><defs><clipPath id="6do8a"><path d="M0 .09h38.71V47H0z"/></clipPath></defs><g><g><g><g/><g clip-path="url(#6do8a)"><path fill="#f39100" d="M27.517 28.11c-.066.55-.11.968-.17 1.382l-.238.26-.122-.28c-.008-.472.052-.926.53-1.362zM10.73 23.584c-.326-.212-.892-.53-.79-.756.162-.36.728-.426 1.266-.556-.248.46-.426.846-.358 1.304zm17.698 5.794c.18.51.096.91-.19 1.25-.12.142-.272.326-.48.112-.162-.168-.29-.342-.046-.574.256-.244.478-.524.716-.788zm-12.43-22.08c.672-.152 1.26-.26 1.994-.232-.386.406-.466.958-1.026 1.078-.65.138-.658-.476-.968-.846zM10.527 31.65c.072-.196.138-.462.358-.472.186-.008.192.272.26.424.174.402.322.816.484 1.224.106.268-.02.318-.252.27-.434-.092-.914-.702-.914-1.184zm.764-27.048c.014.632.314 1.104.866 1.378.552.274 1.126.232 1.61-.164.24-.198.358-.184.536.052.314.416.66.81.988 1.216l.118.244c-.212.172-.514.224-.69.448-.278.354-.446.038-.628-.096-1.118-.824-2.224-1.662-3.344-2.48-.276-.202-.402-.344-.064-.606.188-.146.32-.362.478-.546l.128.074zm6.072 7.99c-1.424-.071-1.362.24-1.468-1.476A4.577 4.577 0 0 1 16.2 9.15c.12-.31.302-.47.646-.49.492-.03.982-.03 1.472.011.264.026.35.142.358.41.01.328-.186.269-.38.273-.732.012-1.282.564-1.274 1.272.006.715.564 1.261 1.29 1.265.16 0 .372-.114.36.212-.01.241.01.472-.328.472h-.934v.018zm1.926 25.586c-1.953-.202-3.791-.452-5.507-1.344a24.552 24.552 0 0 1-2.545-1.528l-.252-.33c.054-.204.252-.048.378-.082.703-.186 1.147.114 1.604.65.837.98 1.954 1.16 3.178.828.586-.16 1.137-.402 1.684-.664.162-.078.312-.2.426.076.329.78.671 1.556 1.034 2.394zm12.716-16.582c.484.972.6 2 .586 3.022a16.168 16.168 0 0 1-.32 3.058c-.266 1.286-.784 2.446-1.362 3.6a7.911 7.911 0 0 1-1.37 1.958l-.26.246c-.192-.084-.302-.294-.382-.492-.08-.204.12-.24.232-.31.894-.554 1.4-1.376 1.548-2.392.132-.906-.048-1.794-.4-2.636-.12-.29-.09-.488.092-.752.816-1.2 1.142-2.588 1.408-3.988.084-.436.154-.876.228-1.314zM23.219 2.758c.864-.67 1.68-1.204 2.512-1.716.204-.126.294-.026.392.122.882 1.334 1.356 2.818 1.63 4.378.056.322-.18.246-.336.27-2.232.342-4.438.796-6.568 1.568-.444.162-.91.298-1.314.534-.504.29-1.006.324-1.632.202.32-.514.69-.954 1.07-1.382l.302.054c.622.332 1.144.292 1.576-.118.412-.388.552-1.11.234-1.624-.186-.304-.108-.45.124-.638.432-.35.848-.72 1.272-1.078l.206-.13c-.2.39-.334.718-.274 1.082.062.364.228.68.53.906.428.324 1.02.324 1.466.01.458-.322.664-.93.504-1.482-.192-.654-.646-.93-1.694-.958zM16.583 13.12c-.884.58-1.696 1.132-2.44 1.77l-.334-.068c-.63-.826-1.466-.966-2.148-.374-.688.592-.704 1.618-.008 2.292.19.186.186.27.01.45a21.731 21.731 0 0 0-1.87 2.148c-.184.246-.338.284-.602.102-.616-.428-1.024-.998-1.318-1.724.882-.092 1.498-.49 1.692-1.382.24-1.096-.798-2.156-1.856-1.918-.144.034-.386.316-.47-.02-.062-.256-.16-.592.238-.752.362-.148.706-.344 1.068-.492 2.13-.87 4.352-1.39 6.62-1.756.32-.05.41.05.418.33l.03.344c.09.856.09.856.97 1.05zm-8.43-8.414c.212-.342.432-.38.784-.138 2.212 1.518 4.384 3.094 6.552 4.676.164.122.248.226.194.442-.066.27-.078.552-.136.822-.03.138.09.386-.16.39-.198.004-.136-.222-.166-.356-.144-.634-.66-1.148-1.304-1.246-.646-.096-1.154.166-1.524.688a1.51 1.51 0 0 0-.288 1.066c.03.24-.008.344-.258.412a24.414 24.414 0 0 0-3.242 1.114c-.184.078-.334.056-.5-.06-.824-.576-1.512-1.3-2.21-2.014l.032-.31c1.178-1.166.992-2.34-.546-3.22.18-.156.346-.304.516-.44.162-.134.292-.31.55-.398-.014.618.108 1.176.608 1.572.276.222.594.346.95.352.738.012 1.372-.532 1.554-1.32.196-.856-.218-1.456-1.406-2.032zm23.75 7.384c1.844 1.776 3.122 3.774 4.052 5.998 1.064 2.552 1.47 5.222 1.302 7.97-.15 2.478-.8 4.83-1.94 7.046-.64 1.246-1.448 2.37-2.322 3.454l-.28.248-.182-.358c-.334-.78-.148-1.394.36-2.09 2.034-2.782 2.994-5.954 3.01-9.38.016-3.954-1.254-7.49-3.754-10.56-.28-.342-.392-.62-.316-1.042.07-.38.046-.776.07-1.286zM7.565 18.786c.548.764 1.282 1.35 1.798 2.123.264.396.074.865.222 1.279-.478.33.004.725-.052 1.1-.086.595-.188 1.192-.24 1.794-.13 1.479.194 2.86.906 4.149.192.352.152.541-.192.791-.904.652-1.194 1.591-1.044 2.722-.65-.367-.924-.989-1.226-1.54-.81-1.48-1.216-3.086-1.486-4.75-.196-1.2-.158-2.38.034-3.557.184-1.143.412-2.284.998-3.311.138-.242.228-.496.282-.8zM18.333 13.1c.778-.31 1.498-.25 2.2-.184 3.442.326 6.534 1.654 9.494 3.356.158.094.268.152.082.354-.498.54-.584 1.172-.22 1.808.356.618.912.874 1.624.68.222-.062.252.034.246.218a18.167 18.167 0 0 1-.57 3.924c-.036.134-.034.276-.28.206-1.23-.334-1.668-.17-2.378.832l-.17-.538c-.642-2.814-2.176-5.086-4.244-7.036-.232-.218-.32-.406-.284-.75.116-1.11-1.02-1.884-2.056-1.444l-.404.074c-.936-.588-1.932-1.064-3.04-1.5zm11.452 22.44c-.962.378-1.872.734-2.744 1.184-1.872.964-3.61 2.122-5.168 3.54-.224.206-.35.234-.57-.018-1.164-1.334-2.026-2.846-2.694-4.478-.1-.248-.088-.396.192-.528 2.17-1.036 4.29-2.17 6.396-3.328.22-.12.354-.13.53.088.578.718 1.33 1.098 2.266 1.052.224-.012.314.094.402.27.382.76.82 1.488 1.39 2.218zm-10.76-25.186c0-.228-.012-.458.002-.686.024-.372-.166-.838.082-1.094.344-.354.888-.46 1.356-.654.186-.076.224.038.266.176a1.425 1.425 0 0 0 1.758 1.012c.744-.21 1.118-.888.992-1.826-.03-.218.044-.286.234-.33a47.16 47.16 0 0 1 4.624-.866c.232-.032.298.03.228.258-.394 1.302.946 2.694 2.378 1.94.37-.194.28.14.292.29.134 1.922-.032 3.822-.424 5.708-.088.43-.196.856-.294 1.286-.048.208-.1.328-.348.162a16.79 16.79 0 0 0-2.586-1.398c-.2-.086-.234-.192-.214-.41a1.47 1.47 0 0 0-.97-1.542c-.624-.238-1.212-.044-1.662.576-.136.188-.242.252-.48.18-.5-.15-1.01-.268-1.522-.376-.29-.06-.404-.132-.352-.494.164-1.086-.596-1.872-1.616-1.74-.652.084-1.152.632-1.222 1.34-.016.164.064.374-.242.366-.3-.008-.284-.2-.28-.404.004-.246.002-.492.002-.736v-.738zm1.55 31.044c-.292.562-.838.81-1.006 1.354l-.362.056c-1.602.038-3.168-.2-4.7-.642-4.078-1.174-7.364-3.488-9.81-6.958-2.43-3.442-3.504-7.296-3.234-11.49.268-4.162 1.86-7.792 4.632-10.904.468-.526.486-.512.948.022.192.222.15.328-.092.418-.262.098-.328.302-.296.552.046.368-.106.648-.328.934-2.354 3.048-3.544 6.492-3.488 10.352.068 4.658 1.8 8.62 5.158 11.812 2.87 2.728 6.32 4.252 10.312 4.502.734.046 1.464.006 2.266-.008zM16.66 17.446c.58.372.972.3 1.398-.232.383-.478.581-1.052.793-1.65.286.892.194 1.446-.324 2.092.738.388 1.152.132 1.851-1.146.494.73.448 1.266-.174 2.026.644.398 1.146.02 1.463-1.098.582.64.578 1.326-.008 2.074 1.036.278 1.47-.386 1.671-2.644.66.882 1.224 1.732 1.282 2.796.038.688-.312 1.21-.958 1.556 1.243.282 1.887-.28 2.039-1.822.552 1.198.961 2.316.674 3.564a1.689 1.689 0 0 1-.73 1.07c-.58.372-.788.326-1.083-.262-.606 1.09-.218 1.904 1.355 2.824-1.111 1.334-1.363 2.824-.754 4.444.12.318-.126.328-.274.408-1.838.962-3.683 1.92-5.526 2.874-.77.4-1.537.8-2.31 1.194-.682.35-1.398.568-2.174.458-.987-.142-1.669-.704-2.1-1.588-.914-1.87-1.54-3.854-2.339-5.768-.727-1.748-.97-3.478-.402-5.32.514.354 1.082.682 1.74.848.687.172 1.366.068 2.05.044.342-.012.344-.246.192-.486-.638-.994-1.455-1.71-2.724-1.578-.464.048-.864.074-1.134-.404-.126.22-.002.37.008.57-.33-.424-.314-.774.024-1.042.4-.318.846-.56 1.337-.704.854-.248 1.584-.004 2.15.678.867 1.042.865 2.25.699 3.494-.03.226-.068.452-.102.678l.06.106c.314-.562.444-1.134.494-1.726.1-1.158-.24-2.2-.952-3.114-.933-1.198-2.199-1.348-3.39-.412-.204.16-.392.342-.6.526-.187-.212-.08-.378.062-.544.356-.408.724-.804 1.056-1.23.206-.262.376-.378.653-.1.102.1.26.132.47.094-.114-.28-.294-.542-.238-.858l.218-.356.234.21c.284.346.638.492 1.167.38-.887-.824-.503-1.572.124-2.434-.044.686-.096 1.256.236 1.76.334.502.814.766 1.413.88-.54-2.032-.54-2.468-.002-3.176-.182 1.734.166 2.606 1.182 2.876-.65-1.252-.4-2.36.513-3.482-.05.592.268.996.288 1.47.018.482-.076.912-.598 1.182zm22.05 7.378a20.572 20.572 0 0 0-1.065-6.172 18.869 18.869 0 0 0-4.95-7.732c-.426-.404-.85-.75-.868-1.486-.03-1.204-.322-2.39-.72-3.54-.118-.344-.258-.51-.668-.438-.512.09-1.04.084-1.562.132-.254.026-.392-.056-.444-.324-.342-1.766-1.16-3.322-2.104-4.828-.244-.388-.444-.446-.848-.194a27.765 27.765 0 0 0-5.758 4.794c-.292.318-.586.486-1.042.516-1.076.072-2.16.11-3.208.408-.304.086-.49-.048-.672-.264-.786-.952-1.684-1.79-2.6-2.61-.234-.21-.414-.254-.668-.034-.372.322-.774.606-1.156.914-.59.476-.614.508-1.198 0-.432-.376-.746-.334-1.186-.008-1.582 1.176-3.01 2.526-4.456 3.856-.23.216-.232.384-.06.624.578.814 1.164 1.626 1.816 2.382.234.272.302.454.01.772-1.96 2.116-3.424 4.526-4.322 7.284-1.038 3.18-1.264 6.408-.62 9.686.672 3.406 2.162 6.412 4.452 9.042 2.502 2.876 5.588 4.794 9.218 5.876 2.026.604 4.106.806 6.214.742.3-.01.476.094.65.322.588.768 1.172 1.542 1.934 2.154.538.428.634.41 1.072-.104 2.368-2.772 5.134-4.996 8.622-6.21.444-.154.574-.518.492-.844-.198-.788.248-1.248.712-1.732.18-.188.364-.376.53-.58 2.904-3.59 4.374-7.702 4.454-12.404z"/></g></g><g><path fill="#f39100" d="M16.447 32.2c-.263.318-.568.564-1.016.548zm-.107-.514c-.475.376-1.016.586-1.609.692-.764.136-1.036-.446-1.417-1.008zm.358-1.212c-.608-.378-1.282-.488-1.968-.16l-.322.058c-.99-.456-1.756.04-2.568.598.506.33.676.806.84 1.316.498 1.56 1.692 2.042 3.16 1.31 1.114-.556 2.024-1.372 3.014-2.368z"/></g><g><path fill="#f39100" d="M23.609 23.774l-.332.37c-.1-.184-.074-.372-.084-.572zm-2.306.422c-.182.008-.296-.126-.306-.31-.012-.208.09-.346.308-.35.192-.004.286.12.314.3zm-2.004 1.058c-.294-.006-.332-.144-.244-.372.204-.53.56-.926 1.092-1.256-.044.624.022 1.16.504 1.658zm4.034-2.14c-.09-.21.134-.368-.006-.588-.3.38-.636.598-1.164.496-1.672-.318-2.82.84-3.424 1.862-.198.334-.048.492.29.522.26.022.526.002.784.032 1.366.166 2.546-.27 3.594-1.11.404-.324.754-.708.96-1.306l-.54.426c.078-.368.308-.628.204-.978z"/></g><g><path fill="#f39100" d="M23.335 21.483l-.314-.02c-1.628-.498-2.942.088-4.106 1.186-.202.192-.386.402-.592.586-.154.14-.348.212-.534.068-.208-.156-.188-.38-.076-.574.212-.376.518-.676.856-.934 1.424-1.082 2.974-1.128 4.596-.536z"/></g><g><path fill="#f39100" d="M21.866 22.46c-.718-.046-1.418.006-2.106.438.404-.706 1.232-.87 2.106-.438"/></g><g><path fill="#f39100" d="M16.584 28.452c.17.266.166.458.004.598-.374.322-.728-.016-1.098-.046.37-.188.958.2 1.094-.552"/></g><g><path fill="#f39100" d="M13.537 28.146c0 .312.104.574.356.808-.574-.078-.656-.274-.356-.808"/></g></g></g></svg>