<svg xmlns="http://www.w3.org/2000/svg" width="62" height="59" viewBox="0 0 62 59"><defs><clipPath id="gxz4a"><path d="M30.52 56.57h2.667v1.906H30.52z"/></clipPath><clipPath id="gxz4b"><path d="M30.86 56.224h2.667v2.259H30.86z"/></clipPath><clipPath id="gxz4c"><path d="M30.74 56.265h2.667v2.216H30.74z"/></clipPath><clipPath id="gxz4d"><path d="M25 .67h2.667v2.607H25z"/></clipPath><clipPath id="gxz4e"><path d="M25.55.662h2.667v2.502H25.55z"/></clipPath><clipPath id="gxz4f"><path d="M35.19.668h2.667v2.15H35.19z"/></clipPath><clipPath id="gxz4g"><path d="M29.85.666h2.667v1.875H29.85z"/></clipPath><clipPath id="gxz4h"><path d="M29.64.666h2.667V2.88H29.64z"/></clipPath><clipPath id="gxz4i"><path d="M25.08.667h2.667V2.34H25.08z"/></clipPath><clipPath id="gxz4j"><path d="M33.22.665h2.667v2.577H33.22z"/></clipPath><clipPath id="gxz4k"><path d="M29.71.666h2.667V2.84H29.71z"/></clipPath><clipPath id="gxz4l"><path d="M26.66.669h2.667v2.589H26.66z"/></clipPath><clipPath id="gxz4m"><path d="M30.52 56.57h2.667v1.906H30.52z"/></clipPath><clipPath id="gxz4n"><path d="M30.86 56.224h2.667v2.259H30.86z"/></clipPath><clipPath id="gxz4o"><path d="M30.74 56.265h2.667v2.216H30.74z"/></clipPath></defs><g><g><g><path fill="#1c1b1a" d="M41.487 35.086c-.128.597.094 1.277-.378 1.842-.334-.632-.203-1.314.378-1.842zm-19.523-5.437c-.558-.282-.744-.441-1.124-.965.494-.226.954-.48 1.573-.544-.33.502-.447.985-.45 1.509zm20.651 6.792c.203.624.099 1.124-.301 1.53l-.525.016-.059-.59c.312-.305.592-.637.885-.956zM28.04 10.558c.782-.182 1.483-.315 2.366-.27-.536.462-.563 1.235-1.368 1.267-.707.03-.632-.64-.998-.997zM21.637 39.05l.398-.512.308.493c.197.454.364.92.54 1.382l.018.36h-.327c-.502-.131-1.017-.814-1.022-1.368zm.888-31.608c.037.739.405 1.277 1.058 1.587.614.288 1.267.256 1.79-.176.368-.307.514-.195.749.109.403.528.843 1.032 1.315 1.603-.382.21-.763.346-1.016.661l-.387-.04c-1.44-1.077-2.877-2.16-4.323-3.232l-.024-.44c.248-.235.464-.504.696-.757l.139.069zm7.114 9.328c-1.669-.088-1.594.28-1.717-1.736a5.328 5.328 0 0 1 .355-2.312c.141-.363.354-.552.762-.576a11.576 11.576 0 0 1 1.72.016c.312.027.411.165.419.48.01.387-.219.315-.445.32-.859.016-1.499.664-1.491 1.499.01.84.664 1.48 1.512 1.482.187 0 .437-.136.421.248-.013.283.014.558-.384.558h-1.093v.021zm2.24 29.976c-2.25-.235-4.384-.515-6.376-1.541a29.029 29.029 0 0 1-2.984-1.787c-.16-.11-.437-.21-.338-.461l.472-.056c.818-.24 1.304.146 1.824.749.981 1.15 2.282 1.37 3.714.984a9.438 9.438 0 0 0 1.92-.76c.307-.165.488-.179.638.21.344.883.741 1.745 1.13 2.662zm14.936-19.55c.486.835.512 1.65.59 2.439.16 1.564.013 3.107-.275 4.663-.387 2.063-1.288 3.87-2.37 5.612-.24.387-.571.72-.875 1.064l-.307.24-.413-.544.202-.341a3.805 3.805 0 0 0 1.694-2.103c.418-1.226.237-2.43-.208-3.59-.192-.506-.15-.844.146-1.297.88-1.354 1.24-2.91 1.534-4.474.096-.506.173-1.015.282-1.668zM36.567 5.194c.947-.76 1.926-1.385 2.915-1.99.25-.155.341.035.445.192 1.016 1.545 1.568 3.265 1.891 5.071.061.362-.173.309-.37.336-2.393.362-4.755.833-7.049 1.611-.778.264-1.568.527-2.296.9-.589.304-1.149.31-1.877.181l1.245-1.555.39-.005c.784.407 1.381.357 1.893-.15.493-.487.603-1.283.205-1.96-.152-.264-.117-.394.091-.567.568-.482 1.128-.972 1.733-1.444-.178.498-.349.983-.144 1.508.203.516.539.89 1.088 1.01a1.517 1.517 0 0 0 1.8-1.215c.192-1.082-.474-1.756-1.96-1.923zM28.715 17.38c-1.031.678-1.985 1.324-2.86 2.074l-.385-.077c-.744-.97-1.719-1.135-2.518-.443-.802.697-.823 1.9-.013 2.693l.016.526a25.613 25.613 0 0 0-2.19 2.52c-.214.286-.395.336-.706.12-.717-.499-1.2-1.169-1.535-2.007.583-.115 1.138-.235 1.532-.71.546-.646.637-1.597.192-2.31-.456-.73-1.229-1.024-2.086-.814-.118.03-.333.233-.373-.018-.054-.294-.222-.673.162-.878.437-.235.89-.452 1.35-.638 2.497-1.023 5.098-1.634 7.751-2.061.376-.059.482.053.493.387l.037.398c.104 1.009.104 1.009 1.133 1.238zm-9.886-9.853c.288-.453.557-.434.96-.16 2.578 1.771 5.106 3.608 7.632 5.451.21.152.317.285.245.563-.085.314-.093.645-.157.965-.027.15.088.403-.158.427-.261.024-.184-.238-.216-.39-.162-.688-.565-1.176-1.229-1.405-1.24-.432-2.51.573-2.424 1.944.021.363-.096.464-.392.539-1.245.317-2.453.754-3.635 1.245-.29.12-.501.09-.738-.083-.92-.672-1.707-1.485-2.499-2.293l.043-.403c1.354-1.277 1.098-2.853-.662-3.728.376-.386.766-.72 1.214-1.026.192 1.522.784 2.242 1.829 2.272.883.024 1.653-.63 1.859-1.576.218-1.008-.342-1.806-1.672-2.342zm27.874 8.712c8.137 7.766 8.257 21.075.937 28.912-.562-.829-.57-1.757-.013-2.522 2.46-3.379 3.717-7.176 3.735-11.342.02-4.44-1.341-8.45-4.057-11.978-.184-.243-.392-.47-.597-.696l-.17-.411c.056-.627.104-1.253.165-1.963zm-28.552 7.776c.64.922 1.555 1.583 2.131 2.535.288.469.08 1.015.24 1.503-.592.346.07.762-.053 1.18-.139.478-.094 1.024-.203 1.53-.107.496-.075.992-.088 1.49-.01.498.027.991.107 1.487.152.925.613 1.727.984 2.564.157.368.181.575-.2.842-1.094.768-1.443 1.879-1.283 3.225-.763-.435-1.09-1.178-1.45-1.842-.942-1.735-1.411-3.622-1.729-5.572-.224-1.41-.165-2.79.056-4.169.208-1.319.48-2.64 1.158-3.827a2.54 2.54 0 0 0 .33-.946zm24.526 6.534a16.376 16.376 0 0 0-1.254-3.846c-.936-1.992-2.338-3.637-3.909-5.149-.237-.23-.344-.413-.293-.781.17-1.323-1.168-2.275-2.406-1.747l-.472.083-.05-.03c-1.086-.674-2.238-1.218-3.512-1.725.909-.363 1.752-.296 2.576-.216 4.032.381 7.661 1.939 11.128 3.933l.096.414c-.584.634-.686 1.376-.259 2.12.416.725 1.067 1.024 1.907.794.258-.069.29.046.282.259a20.803 20.803 0 0 1-.669 4.6c-.037.157-.035.32-.325.24-1.438-.392-1.952-.2-2.84 1.05zM34.33 49.238c-1.424-1.592-2.467-3.414-3.256-5.387-.107-.267-.048-.403.219-.53 2.56-1.225 5.064-2.558 7.546-3.929.28-.152.424-.104.619.131.67.819 1.53 1.264 2.603 1.216.285-.01.405.104.522.336.403.805.846 1.592 1.414 2.299.205.256.117.338-.134.429-3.373 1.227-6.373 3.08-9.04 5.477l-.242.192zm-2.739-35.104c0-.539.024-1.078-.01-1.611-.03-.4.122-.61.48-.725l.421-.192c.832-.374.832-.374 1.32.352.448.674 1.227.944 1.955.674.746-.274 1.288-1.106 1.101-1.874-.117-.48.056-.587.45-.675a73.01 73.01 0 0 1 4.969-.928c.373-.056.597-.107.464.453-.179.758.09 1.448.717 1.942.613.485 1.31.549 1.997.2.416-.211.435-.022.456.301.184 2.763-.173 5.47-.834 8.144-.07.296-.147.43-.475.21a19.028 19.028 0 0 0-2.928-1.583c-.24-.104-.336-.206-.307-.507.083-.83-.386-1.523-1.133-1.808-.736-.275-1.421-.048-1.952.683-.157.218-.283.285-.563.205a21.545 21.545 0 0 0-1.84-.456c-.306-.064-.41-.136-.357-.507.203-1.314-.675-2.253-1.893-2.096-.763.102-1.347.742-1.43 1.571-.018.195.072.443-.285.43-.352-.011-.325-.24-.325-.478.002-.576.002-1.15.002-1.725zm1.819 36.384c-.355.666-.995.957-1.187 1.597l-.376.061c-2.738.035-5.368-.52-7.901-1.562a20.892 20.892 0 0 1-7.443-5.195c-2.04-2.21-3.568-4.755-4.472-7.632-2.002-6.381-1.234-12.416 2.35-18.083.65-1.026 1.41-1.96 2.224-2.853.122-.139.256-.43.498-.245.24.181.43.434.598.69l-.222.214c-.36.13-.429.402-.392.736.051.392-.117.69-.354.992-3.136 4.005-4.531 8.589-4.059 13.618.57 6.107 3.448 10.966 8.563 14.438 2.909 1.976 6.122 3.032 9.632 3.245.826.05 1.64-.019 2.541-.021zM20.978 29.239c.864.656 1.765 1.106 2.81 1.154.555.027 1.113-.01 1.667-.04.374-.018.446-.216.283-.549-.576-1.197-1.93-1.98-3.293-1.89-.758.054-.758.054-1.283-.405l.043.552c-.339-.312-.39-.8-.088-1.058.573-.496 1.226-.867 1.978-.992.939-.157 1.672.17 2.272.92.976 1.226.955 2.617.768 4.051-.037.264-.077.53-.109.795l.077.101c.507-1.053.702-2.114.518-3.239-.166-1.031-.592-1.943-1.312-2.703-1.027-1.093-2.283-1.223-3.515-.365-.328.23-.624.51-.936.77-.208-.253-.07-.45.101-.647.419-.477.846-.946 1.238-1.44.221-.277.402-.447.722-.125.131.13.328.192.576.12-.216-.477-.52-.968.008-1.463.387.517.816.943 1.592.738-.338-.413-.698-.808-.578-1.373.106-.509.312-.973.714-1.365.062 2.034.454 2.629 2.024 2.991-.56-1.253-.893-2.481-.045-3.825-.179 1.466-.21 2.778 1.421 3.59-.794-1.567-.536-2.878.467-4.096.565 2.239.552 2.375-.213 3.006.501.398.829.4 1.306-.005.504-.424.739-1.015.979-1.602.083-.19.15-.384.264-.68.205.99.28 1.834-.453 2.535.946.424 1.49.086 2.173-1.324.61.706.56 1.42-.184 2.367.797.413 1.296.04 1.747-1.304.656.81.65 1.512-.027 2.45 1.221.248 1.584-.312 1.976-3.095.733.984 1.376 1.954 1.48 3.156.067.832-.307 1.482-1.083 1.885 1.291.477 2.264-.363 2.32-2.093.464.81.702 1.573.854 2.362.122.645.141 1.293-.072 1.932-.168.512-.454.923-.931 1.195-.637.362-.856.29-1.117-.37-.84 1.07-.222 2.4 1.536 3.27-.254.397-.552.77-.75 1.189-.602 1.271-.664 2.585-.17 3.91.098.261.13.427-.176.587-3.142 1.61-6.27 3.24-9.403 4.856-.477.248-.992.43-1.53.485-1.52.155-2.683-.493-3.369-1.884-1.154-2.343-1.96-4.828-2.912-7.25-.602-1.528-.912-3.037-.525-4.655.083-.346.104-.706.16-1.13zm33.685 1.847a24.054 24.054 0 0 0-1.277-7.307 22.137 22.137 0 0 0-5.755-8.96c-.493-.475-1.013-.87-1.032-1.733-.037-1.432-.386-2.84-.861-4.206-.13-.376-.285-.565-.741-.49-.622.104-1.262.104-1.888.16-.278.024-.432-.07-.491-.352-.39-2.072-1.352-3.894-2.453-5.664-.302-.491-.55-.536-1.032-.235A32.648 32.648 0 0 0 32.42 7.88c-.336.363-.664.595-1.208.627-1.262.075-2.531.125-3.758.472-.352.096-.584-.019-.802-.285-.918-1.112-1.968-2.096-3.043-3.059-.288-.259-.51-.328-.827-.043-.413.371-.874.688-1.309 1.038-.715.573-.733.602-1.45.002-.48-.4-.838-.389-1.345-.01-1.866 1.392-3.557 2.984-5.266 4.557-.283.264-.224.464-.03.733.675.958 1.363 1.904 2.126 2.792.258.299.344.504.013.862-2.293 2.477-4.016 5.301-5.072 8.53-1.224 3.728-1.493 7.512-.741 11.352.778 3.995 2.525 7.518 5.202 10.606 2.984 3.437 6.675 5.709 11.019 6.965 2.304.667 4.67.888 7.059.813.378-.013.597.115.813.4.672.888 1.352 1.776 2.224 2.48.653.531.757.512 1.296-.12 2.765-3.232 5.99-5.832 10.064-7.245.512-.176.69-.579.6-.973-.224-.963.317-1.534.89-2.126l.585-.634c3.397-4.214 5.114-9.035 5.202-14.528z"/></g><g><path fill="#1c1b1a" d="M28.57 38.662c-.307.372-.667.662-1.192.646zm-.133-.588c-.544.43-1.176.683-1.875.803-.89.154-1.23-.504-1.65-1.2zm.554-1.352c-.749-.504-1.586-.675-2.456-.256l-.373.048c-.795-.403-1.536-.155-2.25.224-.697.368-.691.376-.222.952.16.197.261.421.333.664.104.328.208.659.363.968.597 1.227 1.685 1.677 2.965 1.195 1.56-.592 2.747-1.71 3.886-2.918z"/></g><g><path fill="#1c1b1a" d="M36.493 28.55l.465.24-.388.448zm-2.233.73l-.36-.36c-.014-.244.104-.403.36-.408l.368.348zm-2.358 1.249c-.354-.008-.376-.184-.277-.443.232-.608.645-1.061 1.267-1.464-.032.715.04 1.357.586 1.941zm3.382-2.614c-1.952-.376-3.294.947-4.022 2.163-.229.376-.098.587.312.627.326.032.654.01.979.042 1.872.187 3.413-.48 4.69-1.816.249-.256.467-.552.587-.946-.274.061-.338.328-.584.341.051-.368.368-.656.176-1.056-.314.221-.418.624-.792.757-.098-.24.15-.424 0-.709z"/></g><g><path fill="#1c1b1a" d="M36.638 26.046l-.419.022c-1.744-.523-3.197.048-4.506 1.173-.243.21-.456.467-.691.69-.261.246-.544.617-.912.26-.347-.334-.056-.673.176-.96a4.887 4.887 0 0 1 2.397-1.609c1.24-.386 2.459-.232 3.664.182z"/></g><g><path fill="#1c1b1a" d="M32.48 27.683c.66-.787 1.52-.934 2.446-.411-.853-.085-1.675.019-2.445.41"/></g><g><path fill="#1c1b1a" d="M24.172 27.556c-.413-.112-.717-.238-1.04-.216-.312.024-.619.064-.957.098.714-.624 1.344-.605 1.997.118"/></g><g><path fill="#1c1b1a" d="M28.72 34.282c.206.301.206.523.022.69-.434.393-.856-.002-1.293-.045.424-.221 1.117.235 1.272-.645"/></g><g><path fill="#1c1b1a" d="M25.515 34.876c-.643-.21-.702-.376-.344-1.045.008.434.093.768.344 1.045"/></g><g><path fill="#1c1b1a" d="M39.939 11.47c.922.003 1.685.787 1.693 1.744.008.968-.808 1.808-1.728 1.787-.907-.022-1.677-.851-1.664-1.792.008-.952.779-1.742 1.699-1.739"/></g><g><path fill="#1c1b1a" d="M42.21 16.771c-.003-.989.717-1.741 1.661-1.741.944.003 1.678.755 1.686 1.73.005.99-.755 1.787-1.707 1.782-.93-.003-1.637-.768-1.64-1.77"/></g><g><path fill="#1c1b1a" d="M38.58 21.383c.022-.944.816-1.736 1.726-1.723.914.01 1.685.827 1.674 1.773-.01.974-.84 1.803-1.754 1.766-.91-.04-1.664-.872-1.646-1.816"/></g><g><path fill="#1c1b1a" d="M17.77 14.796c0-.877.653-1.573 1.485-1.576.8 0 1.496.728 1.502 1.579.005.85-.683 1.568-1.504 1.57-.824.003-1.483-.696-1.483-1.573"/></g><g><path fill="#1c1b1a" d="M2.005 34.17l-.024.165-.131.04-.261-.04-.198-.024-.109.022-.213-.038-.326.251c-.112.157-.144.323-.13.587l.306.618.502.411.592.21.469.15.528.104c.24.085.904.05 1.219.037l.581-.077c.24-.003.459.008.656-.003l.347-.061c.256-.101.466-.101.698-.213l.752-.31c.219-.058.536-.24.707-.522.15-.251.141-.414.125-.696-.016-.318-.122-.454-.226-.55l-.398-.317-.157-.021-.29.024-.158-.006c-.219-.029-.496-.114-.813-.098l-.464.125.005.096.056.272.173.355.016.12v.218l-.41.086-.136-.048-.046-.512-.005-.286-.099-.442c.008-.24.12-.622.24-.627l.79.035.24.01.221.019c.243.053.528.213.64.23.11.015.168.143.47.26.306.115.354.267.469.382l.317.573.035.272.013.416.01.163-.18.592-.363.512-.4.381-.414.243c-.04.07-.752.27-1.037.288-.23.01-.544.07-.827.083-.493.029-1.405.01-1.568-.014l-.448-.152c-.168-.08-.229-.01-.586-.09a4.173 4.173 0 0 1-.883-.326l-.197-.208-.48-.194-.312-.32-.014-.035c-.058-.128-.149-.101-.269-.347-.123-.245-.31-.456-.299-.424l-.101-.498v-.176c.043-.307.11-.443.19-.579l.37-.437.488-.144.355.056.325.17z"/></g><g><path fill="#1c1b1a" d="M.117 31.619L0 31.299l.421-.238.616-.056c.507.022.651.03.771.046l.608.101c.296.016.416.056.557.061.155.008.368-.01.675.006l.293.021c.55.072.974.13 1.227.176l.923.11.632.02.232.02.178-.051.11-.395.082-.619.03-.168-.04-.226-.088-.443.192-.216.053-.008.192.235.053.562.011.166-.05.402-.003.246c-.008.165-.035.314-.051.581l.005.275-.024.149-.253.368-.56-.04-.253-.003-.166.003-.688-.075-.082-.013-.494-.12-.173.005-.355-.042h-.224c-.266-.014-.794-.07-1.109-.088l-.187.002-.149.003-.517-.11-.019-.02-.205.053-.376-.062-.102.006-.429.018-.224-.021c-.296-.032-.597-.07-.72-.077z"/></g><g><path fill="#1c1b1a" d="M.865 26.656L.66 26.25l.517-.232.51.018.194.056c.358.128.774.272 1.15.395l.288.08.565.136c.117.035.216.061.717.184l.544.181.134.024.706.11.875.114.693-.093.456-.376.256-.373.008-.062-.234-.517-.424-.408c-.134-.107-.134-.064-.427-.176-.31-.117-.197-.184-.736-.347-.381-.112-.643-.197-.821-.242l-.171-.03-.101-.013-.448-.139-.072-.008-.232-.045-.576-.139-.323-.184-.544.003c-.219-.05-.355-.144-.63-.213l-.431-.126-.304-.04-.291-.144-.147-.392.022-.048c.066-.048.144-.07.41-.005l.16.04c.406.099.696.2.987.301.243.075.381.195.579.246l.13.018.152.024.39.126.141.026c.133.01.424.07.75.15.367.09.76.194.991.282.432.158.688.187.995.302.315.117.57.242.72.405l.56.595.13.357.169.704-.008.163-.179.432-.403.453-.461.341a4.163 4.163 0 0 1-.843.11l-.728-.067-.192-.07-.213-.074-.341-.059-.523-.056-.125-.037c-.243-.09-1.267-.325-1.44-.424l-.136-.04-.496-.077-.552-.144c-.088-.032-.472-.182-.763-.272-.293-.088-.299-.152-.379-.3"/></g><g><path fill="#1c1b1a" d="M1.61 21.556l.25-.459.16-.373.217-.563c.104-.253.21-.464.306-.701l.115-.47.09-.282.16-.208.153.363.048.397-.064.096-.222.416-.13.157.146.131.638.237c.258.104.714.203.922.286l.352.109c.28.115.515.243.763.341.133.051.344.184.664.315.323.128.632.2.88.299l.483.162c.304.123.536.304.8.414l.165.053c.248.07.29-.013.483.03l.221.41.024.56-.05.077-.353.022-.17-.094-.411-.184-.368-.17-.288-.195-.637-.157c-.227-.094-.635-.334-.888-.438l-.139-.042-.773-.24-.232-.08c-.592-.243-.87-.342-1.214-.48l-.597-.208-.139-.056-.49-.288-.15.093c-.072.216-.002.23-.13.555l-.139.336-.323.29z"/></g><g><path fill="#1c1b1a" d="M3.803 17.509l-.173-.216.09-.264.014-.315.221-.584.182-.445.194-.403.094-.157.314-.115.155.275-.013.2-.091.069-.173.136-.094.136-.232.477-.032.168.152.286c.126.064.656.224 1.115.461l.205.117c.374.227.512.312.603.355l.272.104.173.125.248.094.115.074.299.174.344.085.165-.179c.147-.288.19-.37.235-.477l.093-.293.304-.171.061.016-.008.285-.138.27c-.195.37-.211.408-.216.437l-.086.19-.013.14.365.35c.246.125.44.195.616.283l.096.048.531.33.152.07.163.093.085.024.267-.392.194-.312.043-.128.075-.408-.043-.333.005-.099.179-.021.304.098.059.054-.059.416-.112.261-.197.43-.064.17-.211.365c-.19.36-.224.432-.243.512l-.077.238-.067.08-.362-.048-.059-.022-.09-.194-.353-.126a5.086 5.086 0 0 1-.637-.272l-.205-.117-.342-.184-.226-.093-.347-.035-.035-.027-.12-.234-.522-.222-.214-.144c-.125-.112-.269-.194-.656-.4l-.344-.152-.506-.224-.19-.098-.472-.219-.56-.27z"/></g><g><path fill="#1c1b1a" d="M6.42 13.175l.571-.235.656.085.614.07.402.138c.454.152 1.931.31 2.176.446.243.136.227.069.331.101l.312.125.52.123.525.107.374.104.202.024-.018-.035-.47-.413-.522-.4-.272-.288-.064-.035-.27-.17-.133-.1-.28-.277-.101-.066-.214-.136-.541-.451-.776-.501-.28-.198-.224-.184-.357-.381-.168-.323.018-.045.398.03.432.386.413.285.243.203.226.192.408.277.12.086.254.202 1.242.99.939.762.379.334.298.173.387.43.016.258-.085.099-.264.242-.51-.034-1.01-.248-.939-.206-.237-.098-.286-.024-.81-.155-.555-.163-.395-.072-.381-.125-.301-.067-.336-.077-.304-.03.205.329c.355.256.493.354.661.482l.454.294.328.309.061.053.224.134.453.469.107.056.57.323.118.09.4.24.41.366.19.306.128.339c-.053.077-.141.07-.416-.125l-.357-.328-.166-.102-.168-.136-.106-.058c-.056-.019-.086-.04-.36-.246l-.163-.109-.28-.245-.24-.238-.136-.112-.541-.346-.312-.203-.379-.32-.275-.299-.056-.112-.122-.034c-.168-.008-.246-.043-.504-.214l-.576-.466c-.275-.195-.355-.211-.43-.264l-.085-.086z"/></g><g><path fill="#1c1b1a" d="M51.216 8.07l.264.165.077.088.248.334.246.224c.509.442.597.514.616.605l-.04.195-.038.029-.197-.021-.341-.339-.408-.32-.398-.013-.794.818-.211.259-.203.157-.138.088-.062.096-.093.208-.443.483-.064.064-.066.139.21.242.275.19.219.141.093.096-.01.181-.345-.058-.096-.064-.114-.142-.056-.061-.267-.195-.277-.005-.515.507-.208.178-.05.072-.24.339-.054.227-.323-.016-.266-.163-.027-.283.277-.33.168-.12.04-.054.091-.144.155-.168.546-.57.19-.168.056-.078.13-.202.054-.048.429-.459.037-.032.158-.205.296-.291.176-.267.085-.112.325-.362.419-.422.19-.072.013-.05-.019-.235z"/></g><g><path fill="#1c1b1a" d="M53.999 10.72l.146.207.27.435.104.125.216.256.178.344.083.099.176.483-.245.866-.163.128-.477.291-.454.115-.445.048-.667.112-.394-.011h-.355l-.21-.024-.057.736-.197.541-.085.416-.208.51-.104.149-.219.101-.28-.026v-.395c.024-.347.101-.261.19-.552l.053-.416.088-.347.112-.418.125-.446.112-.136.123-.037.517-.03.213.043.294-.117.669-.133.293-.056.526-.238.362-.229.134-.117.261-.456a.877.877 0 0 0-.19-.611l-.063-.085-.344-.31-.198.075-.373.248-.44.347-.637.501-.123.093-.344.315-.41.317-.174.12c-.09.043-.613.4-.867.59l-.16.12-.288.202-.226.19-.275.141-.432-.173.053-.254.262-.272.066-.074.246-.12.341-.272.128-.091.41-.208.102-.056.448-.363.71-.576.631-.57.518-.342.125-.104.275-.186.061-.054.261-.386.088-.043z"/></g><g><path fill="#1c1b1a" d="M56.023 13.9l.264.056.027.019-.08.304-.29.288-.235.173-.36.224-.488.261-.419.344c-.053.051-.339.28-.744.582l-.701.509-.323.261-.128.072-.176.102-.17.141-.297.147-.136.128-.101.058-.421-.053-.195-.056.163-.275.13-.096.48-.373.84-.584.174-.12.253-.208.208-.125.275-.246.104-.074.752-.528.165-.104.219-.171.352-.179.218-.224.336-.2z"/></g><g><path fill="#1c1b1a" d="M56.862 15.887l.219-.037.149.163.213.13.323.382.237.298.206.294.072.125-.038.261-.253.003-.133-.085-.016-.091-.03-.176-.056-.115-.242-.349-.107-.085-.256-.003c-.093.061-.405.368-.752.597l-.157.099a8.964 8.964 0 0 0-.486.283l-.173.146-.157.075-.163.139-.093.05-.24.139-.192.208.064.184.24.347.17.178.003.283-.037.032-.192-.115-.139-.202c-.181-.278-.2-.304-.221-.32l-.096-.131-.091-.064-.392.123-.432.317-.072.048-.435.243-.104.077-.13.08-.048.048.168.339.144.256.072.08.256.21.248.096.069.043-.059.136-.184.173-.058.016-.27-.2-.141-.178-.221-.304-.091-.112-.173-.286c-.182-.269-.219-.325-.264-.368l-.139-.146-.032-.075.179-.235.034-.034.176.01.219-.194.437-.342.16-.096.259-.165.157-.12.155-.232.03-.013.21.008.363-.28.181-.091c.125-.045.237-.112.53-.307l.238-.178.352-.264.144-.094.336-.245.4-.288z"/></g><g><path fill="#1c1b1a" d="M59.305 19.25l-.05.536-.334.475-.299.448-.272.258c-.304.286-1.021 1.363-1.227 1.499l-.213.216-.224.19-.312.351-.293.366-.235.248-.101.144.04.002.506-.197.523-.24.333-.096.06-.035.236-.138.134-.064.328-.104.093-.051.187-.107.576-.237.701-.4.264-.133.232-.099.445-.123.315.003.027.03-.182.298-.472.176-.392.203-.253.104-.243.096-.38.21-.118.054-.256.114c-.155.062-1.016.478-1.275.56-.256.086-.77.368-.968.416l-.41.163-.26.155-.49.125-.205-.09-.04-.107-.083-.302.232-.381.605-.683.54-.642.17-.147.136-.208.45-.565.352-.36.216-.28.256-.246.168-.205.198-.23.144-.22-.339.023c-.339.171-.472.235-.637.315l-.41.232-.372.13-.069.027-.197.12-.544.158-.088.061-.483.31-.117.055-.347.211-.45.168-.315.027-.318-.043c-.032-.07.008-.139.272-.267l.395-.146.15-.088.17-.075.09-.056c.035-.04.065-.053.34-.181l.146-.083.304-.117.285-.088.142-.056.485-.28.285-.163.398-.163.344-.088.11.003.076-.085.368-.302.6-.253c.26-.133.307-.195.376-.227l.104-.029z"/></g><g><path fill="#1c1b1a" d="M55.89 26.566l-.402-.375-.13-.293.04-.054.34-.066.291-.08.254-.059.408-.106.698-.08.691-.187.112-.026.792-.139c.141-.034.376-.101.819-.208l.557-.143.25-.182.046-.016.208.03.12.258.021.12-.058.448-.355.596a1.424 1.424 0 0 1-.608.323c-.307.082-.48.191-.71.245-.653.16-1.05.215-1.231.223l-.398.056-.661-.005-.381-.027zm-.258.183l.413.29.563.315.781.197.099-.008.195-.029.17.05c.08-.01.227-.031.507-.04.283-.01.976-.178 1.16-.223.283-.07.413-.118.515-.184l.477-.267.357-.352.126-.344c.325-.653.256-1.013.202-1.235l-.09-.301.008-.344-.072-.16-.246-.184-.122.005-.091.048-.379.056-.341.11a3.644 3.644 0 0 1-.453.128l-.366.077-.44.117-.349.07-.584.117-.304.083-.272.048-.187.064-.258.029-.299.115-.128-.006-.453.062-.563.162-.248.211.075.448.218.416z"/></g><g><path fill="#1c1b1a" d="M61.823 28.22l-.302.234-.477.123c-.403.04-.515.053-.613.053l-.494-.005-.448.018c-.12.014-.285.056-.528.08l-.237.016c-.437.011-.781.014-.984.011l-.741.027-.502.058-.184.011-.13.064-.046.32.011.499-.003.138.062.174.122.338-.125.192-.043.014-.176-.163-.109-.437-.03-.128-.013-.326-.026-.192-.032-.464-.035-.216.003-.122.154-.318.443-.037.205-.03.126-.02.552-.025.069.003.4.032.136-.021.285-.014.179-.026c.208-.022.632-.04.885-.064l.144-.024.118-.022.421.024.019.014.152-.064.304.002.082-.016.336-.069.176-.008.579-.024.184.15"/></g><g><path fill="#1c1b1a" d="M61.671 33.437l-.13-.051-.502-.277-.437-.171-.339-.224-.346-.165-.376-.206-.454-.2-.49-.173-.523.005-.184-.01-.57-.102-.283.014-.278-.024-.44.021-.12-.01c-.245-.02-.325-.02-.44-.067l-.189-.286.139-.186.485-.11h.09l.318.011.25-.024.131-.016.294.05.202-.005.251.027.453.035.387-.094.888-.4.365-.064.294-.104c.306-.101.488-.109.616-.221.13-.115.074-.107.328-.176.25-.072.346-.085.512-.104"/></g><g><path fill="#1c1b1a" d="M61.833 30.36l-.336.405c-.278.12-.36.24-.507.315l-.707.261-.4.118-.341.146-.392.144.243.222.512.181.49.301.454.216.429.176.341.214"/></g><g><path fill="#1c1b1a" d="M5.482 39.021l-.117-.056"/></g><g><path fill="#1c1b1a" d="M6.28 40.671l-.047-.016.181.216z"/></g><g><path fill="#1c1b1a" d="M6.952 42.227c.061-.206-.278-.55-.355-.848l.01-.059-.16-.08c.16.333.435.733.505.987"/></g><g><path fill="#1c1b1a" d="M7.08 43.177c.024-.072.134.157-.082-.195l.005.037z"/></g><g><path fill="#1c1b1a" d="M7.41 43.755l-.153-.189.027.195z"/></g><g><path fill="#1c1b1a" d="M7.612 43.901l-.077-.096"/></g><g><path fill="#1c1b1a" d="M7.372 43.59l.163.207-.072-.096z"/></g><g><path fill="#1c1b1a" d="M7.325 43.45l.058-.106c-.224-.395-.282-.288-.058.107"/></g><g><path fill="#1c1b1a" d="M7.124 42.241l-.035-.178-.106-.118z"/></g><g><path fill="#1c1b1a" d="M8.09 45.082l.053-.15-.12-.127z"/></g><g><path fill="#1c1b1a" d="M8.141 44.936l.184.195"/></g><g><path fill="#1c1b1a" d="M7.771 43.859l-.301-.323.347.395z"/></g><g><path fill="#1c1b1a" d="M8.616 45.93l-.139-.088.232.163z"/></g><g><path fill="#1c1b1a" d="M9.015 46.475l-.09.106.357.331z"/></g><g><path fill="#1c1b1a" d="M9.467 47.06l-.187-.153"/></g><g><path fill="#1c1b1a" d="M8.545 45.513l.04.221.016-.133z"/></g><g><path fill="#1c1b1a" d="M8.606 45.596v.005l.115.19z"/></g><g><path fill="#1c1b1a" d="M8.537 45.493l.013.021"/></g><g><path fill="#1c1b1a" d="M8.047 44.492c.118.11.32.363.23.056"/></g><g><path fill="#1c1b1a" d="M8.559 45.327l-.131-.248-.08.027z"/></g><g><path fill="#1c1b1a" d="M8.651 45.424l-.096-.101.046.093z"/></g><g><path fill="#1c1b1a" d="M9.26 46.626l.267.301-.254-.408z"/></g><g><path fill="#1c1b1a" d="M8.934 46.124l.019.019"/></g><g><path fill="#1c1b1a" d="M10.413 48.087l-.003-.027-.016.003z"/></g><g><path fill="#1c1b1a" d="M9.267 46.485l-.17-.195.173.227z"/></g><g><path fill="#1c1b1a" d="M9.747 47.36l-.088-.194"/></g><g><path fill="#1c1b1a" d="M8.96 46.19l-.013-.013"/></g><g><path fill="#1c1b1a" d="M8.958 46.185l.133.102-.136-.147z"/></g><g><path fill="#1c1b1a" d="M11.13 48.074c-.072.035-.33-.157-.435-.413-.205-.174-.312.13-.277.397l.27.147-.105-.4c.264.25.168.245.25.408l.462.104-.237-.208z"/></g><g><path fill="#1c1b1a" d="M10.099 47.644l-.075-.083.152.376.227.128-.336-.445z"/></g><g><path fill="#1c1b1a" d="M9.715 47.149l.288.024c-.203-.259-.198-.142-.344-.278.338.416-.134-.093.061.246l-.195-.219.134.248v-.016l.002-.013.008.008h.046-.046l-.01.005v.003l.362.394z"/></g><g><path fill="#1c1b1a" d="M8.577 44.69l-.008.027"/></g><g><path fill="#1c1b1a" d="M8.655 44.901l-.136-.149.056-.037-.104.029.03.027.114.461z"/></g><g><path fill="#1c1b1a" d="M9.18 46.034l.286.339-.064-.227-.035.037z"/></g><g><path fill="#1c1b1a" d="M10.418 48.15l-.11.013.27.114z"/></g><g><path fill="#1c1b1a" d="M10.801 48.592l-.074.035.133.088z"/></g><g><path fill="#1c1b1a" d="M40.197 55.915l.112-.064"/></g><g><path fill="#1c1b1a" d="M39.327 56.21l-.008.047"/></g><g><path fill="#1c1b1a" d="M22.36 56.72l.326.227-.027-.104z"/></g><g><g/><g clip-path="url(#gxz4a)"><path fill="#1c1b1a" d="M31.943 57.886l-.056-.027-.123.088z"/></g></g><g><g/><g clip-path="url(#gxz4b)"><path fill="#1c1b1a" d="M32.07 57.525l.246.056"/></g></g><g><path fill="#1c1b1a" d="M44.643 53.64l.08-.154"/></g><g><path fill="#1c1b1a" d="M15.127 52.667l.293.293"/></g><g><path fill="#1c1b1a" d="M40.17 56.907l.087-.088"/></g><g><path fill="#1c1b1a" d="M15.807 53.243l-.056-.064-.331-.216z"/></g><g><path fill="#1c1b1a" d="M55.841 39.79l.024-.034"/></g><g><path fill="#1c1b1a" d="M57.988 34.781l-.03.224"/></g><g><path fill="#1c1b1a" d="M12.183 49.67l.061.006"/></g><g><path fill="#1c1b1a" d="M17.12 53.48l.007.006"/></g><g><path fill="#1c1b1a" d="M12.257 50.178l.093.13"/></g><g><path fill="#1c1b1a" d="M12.248 50.225l-.07-.083"/></g><g><path fill="#1c1b1a" d="M12.481 50.46l-.136-.153.011.035z"/></g><g><path fill="#1c1b1a" d="M51.221 48.36l.024-.013"/></g><g><path fill="#1c1b1a" d="M25.649 56.79h-.014l.016.007z"/></g><g><path fill="#1c1b1a" d="M26.078 56.817l-.43-.024.08.28z"/></g><g><path fill="#1c1b1a" d="M42.209 55.043l-.304.053c.274-.264.52-.341.226-.32.075.267-1.04.504-.976.765l-.205.016.11-.053c-.406.021-.193.288-.67.437l-.197-.026-.342.189.011-.053-.547.213v-.008l-.306.237.016-.069-.296.157.312-.229c-.371-.173-.238.152-.912.176l.282-.115c-.229-.09-.445.016-.802.008.093.027.733.064.41.219l-.405.125-.421.038-.016-.131-.334.235c-.274.048-.354-.038-.434-.11-.44.075.333.094-.179.227-.379.013-.627.107-1.056.253-.264 0 .032-.082-.064-.106l-.213.136-.04-.051c-.187.064.002.13-.302.2l-.394.013-.315-.021-.304.064.005-.133c-.509.141-.44.106-.858.277l-.374-.08c.275.093-.066.213-.373.312l.237.104-.485.08.067-.12-.086.032.038-.197.176.08.202-.246-.157.035.035-.053-.144.05-.11-.138-.024.053-.629-.099c-.227.067-.44.152-.685.219-.248.07-.534.11-.894.112l.07-.29c.184.143.557-.006.925.031l-.099-.096-.664.075-.301-.147-.245.136-.531-.021c-.008-.067.067-.13.39-.07-.342-.2-.497.174-.835.006l.16-.008-.382-.027-.146-.09.082.013a9.887 9.887 0 0 0-1.005-.165c-.35-.04-.64-.059-.701.016l.154-.216c-.352.12-.709.253-1.066.349.117-.12-.107-.544.338-.512-.117-.05-.258-.117-.53-.133l.037.242c-.275-.24-.197-.141-.541-.378l-.286.178.128-.224-.554.067-.008-.275-.552-.16.186.12c-.53-.221-.64.107-1.178-.098.082-.022.264-.211 0-.336-.163.061-.75.293-1.267.178l-.067-.098-.389-.102c.299-.042 1.077-.12 1.467-.114-.176-.131-.027-.096-.326-.214l.288.011-.669-.323h-.597c.266.078.528.147.8.203l-.366.11-.698-.193.202-.221-.522-.181.234.032c-.245-.171-.509-.056-.768-.334l-.296-.264-.264.71-.274-.243-.315-.339.312-.277h-.195c-.096-.09.104-.072-.144-.197-.109.096-.49-.294-.176.037-.258-.107-.24-.17-.512-.339.038.131-.408.099-.661-.021l-.008-.125c-.475-.318-.68-.558-1.115-.856l-.074-.222-.216-.099.13.094c-.101.136-.528.032-1.021-.25-.368-.251-.08-.209-.152-.24-.31-.275-.493-.337-.656-.39-.168-.056-.307-.11-.523-.395-.128-.264.136-.165.144-.264.294.214.36.424.552.574l-.194-.23.392.286c-.12-.214-1.04-.934-1.43-1.448l-.237-.07.155.131-.203.027c-.232-.15-.525-.294-.75-.611l.03-.104-.285-.315.12.259c-.23-.16-.566-.323-.755-.605.008.2.056.048.115.328-.008-.267.541.583.503.312.06.266.233.35.363.661l.16.083.072.018.014.019-.008-.016-.003-.005-.064-.147.635.435-.051.082.216.107c-.045.077.232.413-.101.181l.266.251.486.488.234.163.475.322-.013.024.341.259.37.243c.249.168.486.362.702.613.17.088.344.176.59.381l.005.099.701.459c.053.157.299.33.57.488.28.152.59.293.766.416l.064-.08c.25.16.517.256.859.389l.021-.09.517.274.632.352-.226-.101c.226.213.52.325.821.397.304.077.595.147.816.317l.304.118-.03-.008.049.021.16.11-.131-.1.4.11.03.115.037.008.074-.096.211.01.504.288.885.038-.045.021.483.117.034.139.406-.061c.197.128.277.197.037.232.563-.008.443.042.925.002l-.04.078.528.066c.166.104.616.19 1.136.283.262.035.544.07.816.117l.4.07.374.069c-.163-.245.432.141.488-.035l.021.134.328.013.261.024.48-.05-.058.111.208-.008-.15.064c.496.006.547-.165.587-.33.248.072.373.061.555-.048.088.05.232.106-.075.128.085.002.35.016.595.013.248-.01.472-.037.477-.104l.283-.024c.389-.016.421-.003.802-.061l-.106-.008c.133-.168.306-.067.608-.123l-.006.016c.712.035.294-.085.995-.064l-.053-.093.376-.086.32.014.314-.059-.154-.027.882.131-.133.07c.597-.009.048-.14.461-.27.094.045-.056.197.227.133l.499-.202.682-.219-.016-.147.56-.101.499-.216.07.021.789-.469c.157.11.488-.048.778-.235.288-.176.552-.346.614-.205l.642-.33-.002.04c.424-.19.536-.329.642-.475l.048.05c.619-.274.68-.312 1.083-.741l.101.059c.051-.07.283-.158.558-.296.274-.139.597-.328.845-.56l-.04.08c.275-.264.672-.47 1.01-.667.329-.21.595-.41.59-.637l.32-.382c-.457.355-.108-.085-.221-.077l.29-.099-.045.014.71-.352c.925-.84 1.847-1.651 2.62-2.539l-.202.008.27-.307-.011.184.242-.445c.4-.41-.005.288.107.15l.141-.193-.05.032c.074-.192.037-.242.256-.517l.202-.099.086-.101.314-.408-.216.099c.088-.211.28-.38.068-.289.394-.197 1.128-1.528 1.274-1.68.093-.317.264-.578.458-.917-.066.07-.21.056-.034-.226.172.234.4-.445.676-.623-.166.079.417-.873.092-.623.141-.24.101.032.245-.136.096-.325.264-.65.448-.997.17-.35.365-.71.496-1.107l-.117-.098.317-.35.08-.45-.08-.03c.168-.373.307-.757.427-1.149.106-.4.216-.8.304-1.203.184-.816.357-1.624.645-2.416l-.067-.106L57.82 35l.235-.661-.045-.819v.219c-.12-.304-.379.362-.566.293.144.344-.373.792-.202 1.347l-.099-.056c.059.144.04.306-.05.589l-.014-.035-.107.539-.133.453c-.099.291-.192.598-.35 1.035l.11-.037-.155.304c.078.261.16-.539.262-.294-.131.102-.224.443-.326.768-.109.326-.218.635-.346.686-.099.293.128-.051.032.242l-.08.059.048.099-.238.245.046-.187-.28.774.136-.262c-.11.403-.31.824-.48 1.254-.182.426-.363.845-.488 1.234l.072-.032c-.211.587-.267.424-.552 1.038l.002-.027-.194.472-.187.005c-.123.315-.155.398-.157.454l-.03.336-.117.05c-.024.163 0 .192-.163.496.091-.272-.21.123-.12-.186-.256.256-.373.49-.464.693l-.365.41.208-.05.168-.213-.176.482c-.141.182-.437.163-.781.622l.061-.102-.432.528-.12.395.301-.437-.197.44-.381.48.109-.286-.285.315c-.099-.139.392-.501.49-.835l-.322.304c.016.315-.384.414-.512.814l-.056-.083-.16.259.045-.235c-.136.304-.475.381-.637.64.424-.461.178-.024.41-.173-.216.33-.344.368-.48.402-.138.035-.293.072-.581.392l.25-.109-.418.267c-.408.4.13.008-.008.218l-.336.427-.067-.075c-.522.395.006.27-.49.6l.101-.264-.21.227-.022-.125c-.205.274-.293.336-.568.514l-.155.347c-.189.075.035-.144-.282.123l.264-.27.029-.141-.544.413.141-.085-.402.464-.011-.11-.27.278.115-.328-.408.4-.248.019c-.29.13-.549.562-.946.717l-.11.115-.514.253-.531.341h-.296c-.304.203.4-.008-.112.32-.363.232-.197-.034-.35-.002-.157.157-.423.461-.834.514zm-26.496-2.737l-.094-.067.019.033zm.12-.087l-.614-.267.4.287c-.114-.21.313.23.214-.02zm-3.882-2.803l.228.25-.218-.285zm43.214-5.748z"/></g><g><g/><g clip-path="url(#gxz4c)"><path fill="#1c1b1a" d="M32.053 57.567l.04.053"/></g></g><g><path fill="#1c1b1a" d="M44.634 53.668l.016-.005.003-.024z"/></g><g><path fill="#1c1b1a" d="M18.706 54l.115.126"/></g><g><path fill="#1c1b1a" d="M11.443 49.442l.2.181-.141-.2z"/></g><g><path fill="#1c1b1a" d="M10.42 47.296l-.08-.085-.033.032z"/></g><g><path fill="#1c1b1a" d="M11.514 49.044l-.221-.301.021.024z"/></g><g><path fill="#1c1b1a" d="M11.26 48.709l-.113-.131"/></g><g><path fill="#1c1b1a" d="M12.695 50.57l-.126-.023c-.144.005.512.325.126.024"/></g><g><path fill="#1c1b1a" d="M11.62 48.754l-.032.117.13.022z"/></g><g><path fill="#1c1b1a" d="M12.558 49.864l-.19-.23-.08-.031z"/></g><g><path fill="#1c1b1a" d="M12.291 49.603l-.176-.16"/></g><g><path fill="#1c1b1a" d="M11.905 49.025l.043.077.133.16z"/></g><g><path fill="#1c1b1a" d="M14.896 52.007l.275.173-.112-.136z"/></g><g><path fill="#1c1b1a" d="M14.33 51.167l.056.152.09-.093z"/></g><g><path fill="#1c1b1a" d="M15.057 51.741c.045-.005.427.203.104-.035"/></g><g><path fill="#1c1b1a" d="M18.963 54.55l-.072-.04-.088.187z"/></g><g><path fill="#1c1b1a" d="M22.994 55.833c-.333-.174-.128.088-.421-.086l.141.152z"/></g><g><path fill="#1c1b1a" d="M22.713 55.899l-.12-.011"/></g><g><path fill="#1c1b1a" d="M58.218 33.896l.067-.245-.083.154z"/></g><g><path fill="#1c1b1a" d="M58.115 33.406l.136-.048-.101-.157z"/></g><g><path fill="#1c1b1a" d="M37.32 56.546l-.01.035.207-.011z"/></g><g><path fill="#1c1b1a" d="M40.437 55.69l-.053.018.139.07z"/></g><g><path fill="#1c1b1a" d="M42.847 54.448l-.307.17"/></g><g><path fill="#1c1b1a" d="M48.753 8.817l.101-.027"/></g><g><path fill="#1c1b1a" d="M47.89 8.221l.037-.013-.168-.043z"/></g><g><path fill="#1c1b1a" d="M47.184 7.567l.365.37-.002.043.136-.03z"/></g><g><path fill="#1c1b1a" d="M46.993 6.987l.08.093-.008-.027z"/></g><g><path fill="#1c1b1a" d="M46.685 6.781l.136.051-.037-.117z"/></g><g><path fill="#1c1b1a" d="M46.521 6.78l.064.027"/></g><g><path fill="#1c1b1a" d="M46.734 6.873l-.141-.059.061.03z"/></g><g><path fill="#1c1b1a" d="M46.782 6.943l-.037.101"/></g><g><path fill="#1c1b1a" d="M47.041 7.645l.046.093.098.024z"/></g><g><path fill="#1c1b1a" d="M46.086 6.193l-.032.128.099.032z"/></g><g><path fill="#1c1b1a" d="M46.048 6.327l-.15-.048"/></g><g><path fill="#1c1b1a" d="M46.404 6.895l.259.066-.299-.096z"/></g><g><path fill="#1c1b1a" d="M45.636 5.849l.11-.006-.185-.005z"/></g><g><path fill="#1c1b1a" d="M45.32 5.628l.065-.12-.283-.07z"/></g><g><path fill="#1c1b1a" d="M44.96 5.421l.147.024"/></g><g><path fill="#1c1b1a" d="M45.707 6.114l-.04-.141-.008.104z"/></g><g><path fill="#1c1b1a" d="M45.661 6.075v-.003l-.096-.08z"/></g><g><path fill="#1c1b1a" d="M45.719 6.117l-.011-.008"/></g><g><path fill="#1c1b1a" d="M46.153 6.585l-.179.077"/></g><g><path fill="#1c1b1a" d="M45.718 6.249l.112.109.059-.053z"/></g><g><path fill="#1c1b1a" d="M45.635 6.23l.077.023-.04-.04z"/></g><g><path fill="#1c1b1a" d="M45.13 5.636l-.213-.09.208.175z"/></g><g><path fill="#1c1b1a" d="M45.391 5.856l-.016-.005"/></g><g><path fill="#1c1b1a" d="M44.247 5.073l.002.021.011-.01z"/></g><g><path fill="#1c1b1a" d="M45.135 5.745l.139.058-.141-.08z"/></g><g><path fill="#1c1b1a" d="M44.749 5.32l.069.107"/></g><g><path fill="#1c1b1a" d="M45.368 5.812l.01.003"/></g><g><path fill="#1c1b1a" d="M45.373 5.821l-.102-.01.104.045z"/></g><g><path fill="#1c1b1a" d="M43.731 5.404l.32.125.192-.432-.197.011.083.256-.184-.203-.342.131.182.053z"/></g><g><path fill="#1c1b1a" d="M44.481 5.27l.056.033-.117-.219-.17.005.255.187z"/></g><g><path fill="#1c1b1a" d="M44.779 5.463l-.214.118.264.048c-.261-.152.096.01-.053-.152l.147.072-.107-.123.005.008h.003l-.003.003-.005.01-.008-.002-.03.018.03-.018.013-.008v-.003l-.277-.136z"/></g><g><path fill="#1c1b1a" d="M45.73 6.714l.006-.021"/></g><g><path fill="#1c1b1a" d="M45.67 6.595l.112.04-.045.053.08-.07-.024-.002-.11-.277z"/></g><g><path fill="#1c1b1a" d="M45.21 6.039l-.233-.112.064.133.019-.043z"/></g><g><path fill="#1c1b1a" d="M44.24 5.021l.08-.056-.194.027z"/></g><g><path fill="#1c1b1a" d="M43.96 4.857l.054-.062-.101-.005z"/></g><g><g/><g clip-path="url(#gxz4d)"><path fill="#1c1b1a" d="M26.367 1.927l-.067.032"/></g></g><g><g/><g clip-path="url(#gxz4e)"><path fill="#1c1b1a" d="M26.88 1.855l.007-.043"/></g></g><g><g/><g clip-path="url(#gxz4f)"><path fill="#1c1b1a" d="M36.614 1.565l-.181-.163.008.099z"/></g></g><g><g/><g clip-path="url(#gxz4g)"><path fill="#1c1b1a" d="M31.131 1.211l.03.032.074-.08z"/></g></g><g><g/><g clip-path="url(#gxz4h)"><path fill="#1c1b1a" d="M31.041 1.571l-.136-.056"/></g></g><g><path fill="#1c1b1a" d="M23.631 2.6l-.056.107"/></g><g><path fill="#1c1b1a" d="M41.007 3.24l-.187-.153"/></g><g><g/><g clip-path="url(#gxz4i)"><path fill="#1c1b1a" d="M26.441.974l-.056.059"/></g></g><g><path fill="#1c1b1a" d="M40.58 2.979l.037.04.21.069z"/></g><g><path fill="#1c1b1a" d="M14.505 7.13l-.024.006"/></g><g><path fill="#1c1b1a" d="M11.62 8.45l.086-.093"/></g><g><path fill="#1c1b1a" d="M42.967 4.601l-.048.024"/></g><g><path fill="#1c1b1a" d="M39.726 3.205l-.005-.003"/></g><g><path fill="#1c1b1a" d="M42.915 4.227l-.064-.067"/></g><g><path fill="#1c1b1a" d="M42.928 4.183l.05.04"/></g><g><path fill="#1c1b1a" d="M42.757 4.091l.093.064-.005-.016z"/></g><g><path fill="#1c1b1a" d="M19.061 4.013h-.016"/></g><g><path fill="#1c1b1a" d="M34.668 2.037l.01-.002-.01-.006z"/></g><g><g/><g clip-path="url(#gxz4j)"><path fill="#1c1b1a" d="M34.43 2.06l.247-.027-.029-.266z"/></g></g><g><path fill="#1c1b1a" d="M25.153 2.167l.182.045-.147.23c-.035-.283.632-.147.605-.422l.12.035-.064.024c.238.093.126-.23.408-.232l.112.08.206-.099-.008.05.325-.069-.003.008.192-.165-.013.067.173-.086-.186.15c.2.253.144-.083.525.037l-.165.053.456.15-.219-.29.232-.049.24.045.003.131.2-.173.24.181c.253.005-.184-.15.114-.19.211.038.355-.029.608-.106l.03.115.128-.104.016.048.184-.166.57.043-.008.128c.296-.099.251-.072.496-.208l.206.09.226-.295-.128-.115.28-.053-.048.117.056-.027-.037.192-.09-.088-.131.235.09-.032-.024.05.088-.04.051.15.019-.056.349.12c.261-.125.499-.317.915-.344l-.062.293-.517-.013.045.099.382-.088.165.13.448-.152-.224.096.472-.045-.09.013.293.094-.043-.008c.29.072.901.144.976-.019l-.101.23.64-.47c-.075.136.029.52-.23.547l.307.061-.008-.235.293.302.179-.222-.088.24.33-.157-.007.261.317.054-.104-.078c.31.102.395-.237.701-.13l-.021.322c.104-.09.477-.44.781-.442l.038.08.237-.008-.904.445.184.13-.17.051.386.16.37-.152-.482.006c.019-.136.368-.294.65-.184l-.135.258.168-.008.144.054-.144.024.461.117.168.163.205-.726.342.368-.211.342.123-.059.085.136.112-.083.317.15.424-.187v.11c.288.14.419.266.694.386l.042.165.187.008-.128.115.395.021-.395-.17c.07-.155.352-.214.67-.142.242.075.045.147.098.147.4.237.493-.085.787.205l-.104.28-.371-.266.13.122-.263-.096.408.275.552.37.16-.04-.107-.045.147-.104.525.176-.03.128-.154-.133.363.23-.086-.155.539.16-.085-.206c.008.214-.411-.274-.35-.013l-.258-.397h-.115l-.05.01-.009-.008.006.008.002.003.043.096-.44-.09.032-.086h-.147l.072-.192-.173-.107-.33-.216-.155-.045-.312-.096.008-.021-.462-.176-.448-.283-.376-.139v-.085l-.434-.187-.347-.264-.47-.149-.042.093-.523-.125-.018.09c-.192.014-.406-.229-.678-.293l.136.038c-.264-.294-.725-.062-.973-.29l-.176-.057.021.003-.032-.01-.085-.078.07.072-.233-.032-.01-.104-.019-.003-.056.11-.125.029-.283-.182-.528.118.027-.03-.272-.053-.014-.128-.242.115-.008-.222c-.328.072-.256.006-.539.104l.03-.077-.307-.003c-.091-.09-.344-.136-.64-.186l-.459-.086-.435-.1c.08.242-.237-.126-.274.052l-.006-.136c-.28.032-.408-.122-.608.016l.04-.112-.117.006L31.7.67c-.28-.014-.32.154-.35.312l-.314.021.05-.125-.61.037h-.16l-.45-.01.055.02-.352.06.006-.017c-.395-.104-.166.056-.563-.064l.024.096-.573-.01.082.05-.488-.28.075-.048c-.339-.1-.035.128-.272.18l-.123-.177-.693.163v.144l-.621.053-.04-.037-.48.237c-.176-.307-.779.307-.832.003l-.398.106.003-.034c-.256.037-.333.128-.405.221l-.027-.061c-.381.026-.419.056-.688.282l-.056-.088c-.07.075-.576-.002-.901.22l.026-.054c-.368.226-1.05.058-1.077.445l-.227.184c.342-.101.003.165.16.17l-.221-.053.035.008-.48-.029c-.648.27-1.328.445-1.928.73l.133.102-.21.093.029-.136-.208.216c-.315.088.034-.21-.056-.17l-.115.07.037.002-.232.25-.144-.034-.066.032-.267.125.16.048-.067.176c-.266-.088-.978.464-1.109.477l-.453.366-.011.17c-.088-.264-.357.083-.595.011.187.03-.429.325-.149.357l-.203-.064c-.25.3-.72.422-1.074.728l.058.134-.304.008-.152.218.051.07c-.41.213-.752.536-1.096.856-.347.317-.696.63-1.147.837l.016.093.102.091-.371.179-.224.424.072-.107.517.224c.006-.25.512-.15.552-.528l.062.09.2-.269v.027c.33-.33.533-.403.968-.699l-.088-.048.186-.072h-.258l.834-.394.032-.16.07.018-.014-.088.224.003-.072.08.371-.283-.155.072c.344-.33.856-.602 1.168-.957l-.05-.016c.245-.264.258-.117.56-.357l-.006.016.206-.206.133.11c.272-.28.123-.16.25-.432l.089.032.181-.25.056.2c.427-.065.44-.44.712-.324.067-.272-.36.07-.288-.02l.179-.254c.114-.062.32.128.605-.027l-.056.045.347-.168.128-.232-.251.168c.13-.117.192-.349.485-.392l-.104.158.224-.09-.416.378.248-.059c.019-.253.299-.115.422-.36l.026.093.131-.122-.05.16.474-.179c-.32.15-.12-.072-.283-.072.35-.296.331.117.758-.11l-.171-.04.293-.005c.288-.14-.082-.072.022-.178l.245-.195.037.09c.371-.071.019-.223.358-.271l-.08.176.146-.094.006.115.397-.179.117-.229.184.019-.181.114-.027.107.368-.11-.096.006.28-.235v.1l.182-.126-.094.237.283-.179.15.083c.183-.003.373-.277.615-.275l.072-.06.656-.166.182.106c.192-.077-.238-.13.082-.258l.206.12c.098-.094.274-.288.514-.214z"/></g><g><g/><g clip-path="url(#gxz4k)"><path fill="#1c1b1a" d="M31.054 1.53l-.021-.053"/></g></g><g><path fill="#1c1b1a" d="M23.639 2.584h-.008l-.003.019z"/></g><g><path fill="#1c1b1a" d="M38.737 3.21l-.067-.074"/></g><g><path fill="#1c1b1a" d="M43.494 4.461l-.141-.056.098.096z"/></g><g><path fill="#1c1b1a" d="M44.263 5.677l.059.026.021-.04z"/></g><g><path fill="#1c1b1a" d="M43.443 4.819l.16.149-.016-.01z"/></g><g><path fill="#1c1b1a" d="M43.622 4.978l.083.05"/></g><g><path fill="#1c1b1a" d="M42.615 4.08l.088-.032c.098-.064-.355-.056-.088.032"/></g><g><path fill="#1c1b1a" d="M43.367 5.087l.022-.107-.091.04z"/></g><g><path fill="#1c1b1a" d="M42.711 4.6l.131.107.053-.008z"/></g><g><path fill="#1c1b1a" d="M42.89 4.695l.127.056"/></g><g><path fill="#1c1b1a" d="M43.166 4.99l-.03-.047-.095-.067z"/></g><g><path fill="#1c1b1a" d="M41.141 3.738l-.176-.056.07.083z"/></g><g><path fill="#1c1b1a" d="M41.503 4.23l-.035-.101-.064.109z"/></g><g><path fill="#1c1b1a" d="M41.018 4.021l-.07.064"/></g><g><path fill="#1c1b1a" d="M38.6 2.786l.043.013.064-.192z"/></g><g><path fill="#1c1b1a" d="M36.188 2.527l.25.005-.08-.117z"/></g><g><path fill="#1c1b1a" d="M36.359 2.409l.069-.011"/></g><g><path fill="#1c1b1a" d="M11.187 8.737l-.128.072.112-.016z"/></g><g><path fill="#1c1b1a" d="M11.102 9.04l-.117-.067.026.141z"/></g><g><g/><g clip-path="url(#gxz4l)"><path fill="#1c1b1a" d="M28.044 1.954l.008-.032-.117-.03z"/></g></g><g><path fill="#1c1b1a" d="M26.22 2.068l.032-.003-.077-.106z"/></g><g><path fill="#1c1b1a" d="M24.75 2.511l.187-.056"/></g><g><path fill="#1c1b1a" d="M5.482 39.021l-.117-.056"/></g><g><path fill="#1c1b1a" d="M6.28 40.671l-.047-.016.181.216z"/></g><g><path fill="#1c1b1a" d="M6.952 42.227c.061-.206-.278-.55-.355-.848l.01-.059-.16-.08c.16.333.435.733.505.987"/></g><g><path fill="#1c1b1a" d="M7.08 43.177c.024-.072.134.157-.082-.195l.005.037z"/></g><g><path fill="#1c1b1a" d="M7.41 43.755l-.153-.189.027.195z"/></g><g><path fill="#1c1b1a" d="M7.612 43.901l-.077-.096"/></g><g><path fill="#1c1b1a" d="M7.372 43.59l.163.207-.072-.096z"/></g><g><path fill="#1c1b1a" d="M7.325 43.45l.058-.106c-.224-.395-.282-.288-.058.107"/></g><g><path fill="#1c1b1a" d="M7.124 42.241l-.035-.178-.106-.118z"/></g><g><path fill="#1c1b1a" d="M8.09 45.082l.053-.15-.12-.127z"/></g><g><path fill="#1c1b1a" d="M8.141 44.936l.184.195"/></g><g><path fill="#1c1b1a" d="M7.771 43.859l-.301-.323.347.395z"/></g><g><path fill="#1c1b1a" d="M8.616 45.93l-.139-.088.232.163z"/></g><g><path fill="#1c1b1a" d="M9.015 46.475l-.09.106.357.331z"/></g><g><path fill="#1c1b1a" d="M9.467 47.06l-.187-.153"/></g><g><path fill="#1c1b1a" d="M8.545 45.513l.04.221.016-.133z"/></g><g><path fill="#1c1b1a" d="M8.606 45.596v.005l.115.19z"/></g><g><path fill="#1c1b1a" d="M8.537 45.493l.013.021"/></g><g><path fill="#1c1b1a" d="M8.047 44.492c.118.11.32.363.23.056"/></g><g><path fill="#1c1b1a" d="M8.559 45.327l-.131-.248-.08.027z"/></g><g><path fill="#1c1b1a" d="M8.651 45.424l-.096-.101.046.093z"/></g><g><path fill="#1c1b1a" d="M9.26 46.626l.267.301-.254-.408z"/></g><g><path fill="#1c1b1a" d="M8.934 46.124l.019.019"/></g><g><path fill="#1c1b1a" d="M10.413 48.087l-.003-.027-.016.003z"/></g><g><path fill="#1c1b1a" d="M9.267 46.485l-.17-.195.173.227z"/></g><g><path fill="#1c1b1a" d="M9.747 47.36l-.088-.194"/></g><g><path fill="#1c1b1a" d="M8.96 46.19l-.013-.013"/></g><g><path fill="#1c1b1a" d="M8.958 46.185l.133.102-.136-.147z"/></g><g><path fill="#1c1b1a" d="M11.13 48.074c-.072.035-.33-.157-.435-.413-.205-.174-.312.13-.277.397l.27.147-.105-.4c.264.25.168.245.25.408l.462.104-.237-.208z"/></g><g><path fill="#1c1b1a" d="M10.099 47.644l-.075-.083.152.376.227.128-.336-.445z"/></g><g><path fill="#1c1b1a" d="M9.715 47.149l.288.024c-.203-.259-.198-.142-.344-.278.338.416-.134-.093.061.246l-.195-.219.134.248v-.016l.002-.013.008.008h.046-.046l-.01.005v.003l.362.394z"/></g><g><path fill="#1c1b1a" d="M8.577 44.69l-.008.027"/></g><g><path fill="#1c1b1a" d="M8.655 44.901l-.136-.149.056-.037-.104.029.03.027.114.461z"/></g><g><path fill="#1c1b1a" d="M9.18 46.034l.286.339-.064-.227-.035.037z"/></g><g><path fill="#1c1b1a" d="M10.418 48.15l-.11.013.27.114z"/></g><g><path fill="#1c1b1a" d="M10.801 48.592l-.074.035.133.088z"/></g><g><path fill="#1c1b1a" d="M40.197 55.915l.112-.064"/></g><g><path fill="#1c1b1a" d="M39.327 56.21l-.008.047"/></g><g><path fill="#1c1b1a" d="M22.36 56.72l.326.227-.027-.104z"/></g><g><g/><g clip-path="url(#gxz4m)"><path fill="#1c1b1a" d="M31.943 57.886l-.056-.027-.123.088z"/></g></g><g><g/><g clip-path="url(#gxz4n)"><path fill="#1c1b1a" d="M32.07 57.525l.246.056"/></g></g><g><path fill="#1c1b1a" d="M44.643 53.64l.08-.154"/></g><g><path fill="#1c1b1a" d="M15.127 52.667l.293.293"/></g><g><path fill="#1c1b1a" d="M40.17 56.907l.087-.088"/></g><g><path fill="#1c1b1a" d="M15.807 53.243l-.056-.064-.331-.216z"/></g><g><path fill="#1c1b1a" d="M55.841 39.79l.024-.034"/></g><g><path fill="#1c1b1a" d="M57.988 34.781l-.03.224"/></g><g><path fill="#1c1b1a" d="M12.183 49.67l.061.006"/></g><g><path fill="#1c1b1a" d="M17.12 53.48l.007.006"/></g><g><path fill="#1c1b1a" d="M12.257 50.178l.093.13"/></g><g><path fill="#1c1b1a" d="M12.248 50.225l-.07-.083"/></g><g><path fill="#1c1b1a" d="M12.481 50.46l-.136-.153.011.035z"/></g><g><path fill="#1c1b1a" d="M51.221 48.36l.024-.013"/></g><g><path fill="#1c1b1a" d="M25.649 56.79h-.014l.016.007z"/></g><g><path fill="#1c1b1a" d="M26.078 56.817l-.43-.024.08.28z"/></g><g><path fill="#1c1b1a" d="M42.209 55.043l-.304.053c.274-.264.52-.341.226-.32.075.267-1.04.504-.976.765l-.205.016.11-.053c-.406.021-.193.288-.67.437l-.197-.026-.342.189.011-.053-.547.213v-.008l-.306.237.016-.069-.296.157.312-.229c-.371-.173-.238.152-.912.176l.282-.115c-.229-.09-.445.016-.802.008.093.027.733.064.41.219l-.405.125-.421.038-.016-.131-.334.235c-.274.048-.354-.038-.434-.11-.44.075.333.094-.179.227-.379.013-.627.107-1.056.253-.264 0 .032-.082-.064-.106l-.213.136-.04-.051c-.187.064.002.13-.302.2l-.394.013-.315-.021-.304.064.005-.133c-.509.141-.44.106-.858.277l-.374-.08c.275.093-.066.213-.373.312l.237.104-.485.08.067-.12-.086.032.038-.197.176.08.202-.246-.157.035.035-.053-.144.05-.11-.138-.024.053-.629-.099c-.227.067-.44.152-.685.219-.248.07-.534.11-.894.112l.07-.29c.184.143.557-.006.925.031l-.099-.096-.664.075-.301-.147-.245.136-.531-.021c-.008-.067.067-.13.39-.07-.342-.2-.497.174-.835.006l.16-.008-.382-.027-.146-.09.082.013a9.887 9.887 0 0 0-1.005-.165c-.35-.04-.64-.059-.701.016l.154-.216c-.352.12-.709.253-1.066.349.117-.12-.107-.544.338-.512-.117-.05-.258-.117-.53-.133l.037.242c-.275-.24-.197-.141-.541-.378l-.286.178.128-.224-.554.067-.008-.275-.552-.16.186.12c-.53-.221-.64.107-1.178-.098.082-.022.264-.211 0-.336-.163.061-.75.293-1.267.178l-.067-.098-.389-.102c.299-.042 1.077-.12 1.467-.114-.176-.131-.027-.096-.326-.214l.288.011-.669-.323h-.597c.266.078.528.147.8.203l-.366.11-.698-.193.202-.221-.522-.181.234.032c-.245-.171-.509-.056-.768-.334l-.296-.264-.264.71-.274-.243-.315-.339.312-.277h-.195c-.096-.09.104-.072-.144-.197-.109.096-.49-.294-.176.037-.258-.107-.24-.17-.512-.339.038.131-.408.099-.661-.021l-.008-.125c-.475-.318-.68-.558-1.115-.856l-.074-.222-.216-.099.13.094c-.101.136-.528.032-1.021-.25-.368-.251-.08-.209-.152-.24-.31-.275-.493-.337-.656-.39-.168-.056-.307-.11-.523-.395-.128-.264.136-.165.144-.264.294.214.36.424.552.574l-.194-.23.392.286c-.12-.214-1.04-.934-1.43-1.448l-.237-.07.155.131-.203.027c-.232-.15-.525-.294-.75-.611l.03-.104-.285-.315.12.259c-.23-.16-.566-.323-.755-.605.008.2.056.048.115.328-.008-.267.541.583.503.312.06.266.233.35.363.661l.16.083.072.018.014.019-.008-.016-.003-.005-.064-.147.635.435-.051.082.216.107c-.045.077.232.413-.101.181l.266.251.486.488.234.163.475.322-.013.024.341.259.37.243c.249.168.486.362.702.613.17.088.344.176.59.381l.005.099.701.459c.053.157.299.33.57.488.28.152.59.293.766.416l.064-.08c.25.16.517.256.859.389l.021-.09.517.274.632.352-.226-.101c.226.213.52.325.821.397.304.077.595.147.816.317l.304.118-.03-.008.049.021.16.11-.131-.1.4.11.03.115.037.008.074-.096.211.01.504.288.885.038-.045.021.483.117.034.139.406-.061c.197.128.277.197.037.232.563-.008.443.042.925.002l-.04.078.528.066c.166.104.616.19 1.136.283.262.035.544.07.816.117l.4.07.374.069c-.163-.245.432.141.488-.035l.021.134.328.013.261.024.48-.05-.058.111.208-.008-.15.064c.496.006.547-.165.587-.33.248.072.373.061.555-.048.088.05.232.106-.075.128.085.002.35.016.595.013.248-.01.472-.037.477-.104l.283-.024c.389-.016.421-.003.802-.061l-.106-.008c.133-.168.306-.067.608-.123l-.006.016c.712.035.294-.085.995-.064l-.053-.093.376-.086.32.014.314-.059-.154-.027.882.131-.133.07c.597-.009.048-.14.461-.27.094.045-.056.197.227.133l.499-.202.682-.219-.016-.147.56-.101.499-.216.07.021.789-.469c.157.11.488-.048.778-.235.288-.176.552-.346.614-.205l.642-.33-.002.04c.424-.19.536-.329.642-.475l.048.05c.619-.274.68-.312 1.083-.741l.101.059c.051-.07.283-.158.558-.296.274-.139.597-.328.845-.56l-.04.08c.275-.264.672-.47 1.01-.667.329-.21.595-.41.59-.637l.32-.382c-.457.355-.108-.085-.221-.077l.29-.099-.045.014.71-.352c.925-.84 1.847-1.651 2.62-2.539l-.202.008.27-.307-.011.184.242-.445c.4-.41-.005.288.107.15l.141-.193-.05.032c.074-.192.037-.242.256-.517l.202-.099.086-.101.314-.408-.216.099c.088-.211.28-.38.068-.289.394-.197 1.128-1.528 1.274-1.68.093-.317.264-.578.458-.917-.066.07-.21.056-.034-.226.172.234.4-.445.676-.623-.166.079.417-.873.092-.623.141-.24.101.032.245-.136.096-.325.264-.65.448-.997.17-.35.365-.71.496-1.107l-.117-.098.317-.35.08-.45-.08-.03c.168-.373.307-.757.427-1.149.106-.4.216-.8.304-1.203.184-.816.357-1.624.645-2.416l-.067-.106L57.82 35l.235-.661-.045-.819v.219c-.12-.304-.379.362-.566.293.144.344-.373.792-.202 1.347l-.099-.056c.059.144.04.306-.05.589l-.014-.035-.107.539-.133.453c-.099.291-.192.598-.35 1.035l.11-.037-.155.304c.078.261.16-.539.262-.294-.131.102-.224.443-.326.768-.109.326-.218.635-.346.686-.099.293.128-.051.032.242l-.08.059.048.099-.238.245.046-.187-.28.774.136-.262c-.11.403-.31.824-.48 1.254-.182.426-.363.845-.488 1.234l.072-.032c-.211.587-.267.424-.552 1.038l.002-.027-.194.472-.187.005c-.123.315-.155.398-.157.454l-.03.336-.117.05c-.024.163 0 .192-.163.496.091-.272-.21.123-.12-.186-.256.256-.373.49-.464.693l-.365.41.208-.05.168-.213-.176.482c-.141.182-.437.163-.781.622l.061-.102-.432.528-.12.395.301-.437-.197.44-.381.48.109-.286-.285.315c-.099-.139.392-.501.49-.835l-.322.304c.016.315-.384.414-.512.814l-.056-.083-.16.259.045-.235c-.136.304-.475.381-.637.64.424-.461.178-.024.41-.173-.216.33-.344.368-.48.402-.138.035-.293.072-.581.392l.25-.109-.418.267c-.408.4.13.008-.008.218l-.336.427-.067-.075c-.522.395.006.27-.49.6l.101-.264-.21.227-.022-.125c-.205.274-.293.336-.568.514l-.155.347c-.189.075.035-.144-.282.123l.264-.27.029-.141-.544.413.141-.085-.402.464-.011-.11-.27.278.115-.328-.408.4-.248.019c-.29.13-.549.562-.946.717l-.11.115-.514.253-.531.341h-.296c-.304.203.4-.008-.112.32-.363.232-.197-.034-.35-.002-.157.157-.423.461-.834.514zm-26.496-2.737l-.094-.067.019.033zm.12-.087l-.614-.267.4.287c-.114-.21.313.23.214-.02zm-3.882-2.803l.228.25-.218-.285zm43.214-5.748z"/></g><g><g/><g clip-path="url(#gxz4o)"><path fill="#1c1b1a" d="M32.053 57.567l.04.053"/></g></g><g><path fill="#1c1b1a" d="M44.634 53.668l.016-.005.003-.024z"/></g><g><path fill="#1c1b1a" d="M18.706 54l.115.126"/></g><g><path fill="#1c1b1a" d="M11.443 49.442l.2.181-.141-.2z"/></g><g><path fill="#1c1b1a" d="M10.42 47.296l-.08-.085-.033.032z"/></g><g><path fill="#1c1b1a" d="M11.514 49.044l-.221-.301.021.024z"/></g><g><path fill="#1c1b1a" d="M11.26 48.709l-.113-.131"/></g><g><path fill="#1c1b1a" d="M12.695 50.57l-.126-.023c-.144.005.512.325.126.024"/></g><g><path fill="#1c1b1a" d="M11.62 48.754l-.032.117.13.022z"/></g><g><path fill="#1c1b1a" d="M12.558 49.864l-.19-.23-.08-.031z"/></g><g><path fill="#1c1b1a" d="M12.291 49.603l-.176-.16"/></g><g><path fill="#1c1b1a" d="M11.905 49.025l.043.077.133.16z"/></g><g><path fill="#1c1b1a" d="M14.896 52.007l.275.173-.112-.136z"/></g><g><path fill="#1c1b1a" d="M14.33 51.167l.056.152.09-.093z"/></g><g><path fill="#1c1b1a" d="M15.057 51.741c.045-.005.427.203.104-.035"/></g><g><path fill="#1c1b1a" d="M18.963 54.55l-.072-.04-.088.187z"/></g><g><path fill="#1c1b1a" d="M22.994 55.833c-.333-.174-.128.088-.421-.086l.141.152z"/></g><g><path fill="#1c1b1a" d="M22.713 55.899l-.12-.011"/></g><g><path fill="#1c1b1a" d="M58.218 33.896l.067-.245-.083.154z"/></g><g><path fill="#1c1b1a" d="M58.115 33.406l.136-.048-.101-.157z"/></g><g><path fill="#1c1b1a" d="M37.32 56.546l-.01.035.207-.011z"/></g><g><path fill="#1c1b1a" d="M40.437 55.69l-.053.018.139.07z"/></g><g><path fill="#1c1b1a" d="M42.847 54.448l-.307.17"/></g></g></g></svg>