<?xml version="1.0" encoding="utf-8"?>
<!-- Generator: Adobe Illustrator 22.1.0, SVG Export Plug-In . SVG Version: 6.00 Build 0)  -->
<svg version="1.1" id="location" xmlns="http://www.w3.org/2000/svg" xmlns:xlink="http://www.w3.org/1999/xlink" x="0px" y="0px"
	 viewBox="0 0 64 64" enable-background="new 0 0 64 64" xml:space="preserve">
<path fill-rule="evenodd" clip-rule="evenodd" fill="#d75948" d="M32,0C20.2,0,10.7,9.6,10.7,21.3c0,3.5,0.9,7,2.6,10.1l17.6,31.8
	c0.2,0.4,0.7,0.7,1.2,0.7c0.5,0,0.9-0.3,1.2-0.7l17.6-31.9c1.7-3.1,2.6-6.6,2.6-10.1C53.3,9.6,43.8,0,32,0 M32,31.3
	c-5.5,0-10-4.5-10-10c0-5.5,4.5-10,10-10c5.5,0,10,4.5,10,10C42,26.8,37.5,31.3,32,31.3"/>
</svg>
