<svg xmlns="http://www.w3.org/2000/svg" width="20" height="41" viewBox="0 0 20 41"><g><g clip-path="url(#clip-38E1CA7D-FB53-43C7-BE65-6A2B61E54F24)"><path fill="#98201a" d="M8.685 20.896c.648 0 1.108-.035 1.56.009.646.063 1.165.356 1.401 1.008.248.685.065 1.298-.423 1.781-1.022 1.014-2.265.966-3.518.59-1.025-.307-1.618-1.036-1.736-2.109-.142-1.303.443-2.256 1.575-2.806 2.147-1.047 4.335-.96 6.408.16 1.63.88 2.166 3.098 1.366 5.052-.28.685-.496 1.122-2.034 2.885-1.658 1.904-3.312 3.665-4.544 5.276-.836 1.093-1.037 1.47-1.177 1.935-.576 1.913.443 3.42.044 3.696-.456.318-2.47-1.19-4.174-3.53C.173 30.37-.687 24.601.523 20.997c.62-1.851 1.985-3.714 2.638-4.207l.918-.692s-.32-2.317-.377-2.768c-.273-2.114-.829-5.1.51-7.905.777-1.627 1.842-2.99 3.312-4.025 1.026-.722 2.339-.73 3.34-.042.443.306 1.028.797.56 1.27-.361.366-.777 1.394-1.713.572-.594-.518-1.196-.221-1.73.246-3.306 2.893-3.716 7.724-.948 11.13.227.283.378.25.757.196.877-.124 1.87-.838 2.695.201.23.29.633.309.99.368 0 0 .936.188 2.959.945 1.307.49 2.025 1.57 2.856 2.82.605.913 3.292 4.954 2.001 8.764-.293.868-1.684 2.487-4.314 5.847-.838 1.07-1.43 1.813-1.93 3.033-.648 1.583-.69 3.794-.69 3.794-.314-.033-2.496-.304-3.279-1.946-.327-.684-.275-1.327-.234-1.777.179-1.926 1.563-3.285 3.615-5.626.533-.607.673-.712 1.37-1.525 1.391-1.619 2.017-2.47 2.606-3.419 1.942-3.127 1.3-5.933-1.933-7.702-2.815-1.538-5.717-1.549-8.481.213-1.368.87-2.108 2.178-1.86 3.843.252 1.665 1.446 2.513 2.96 2.912 1.769.463 3.51.439 4.981-.848 1.167-1.02 1.307-2.605.393-3.657-.871-1.002-2.6-1.124-3.81-.116"/></g></g></svg>