<svg xmlns="http://www.w3.org/2000/svg" width="48" height="46" viewBox="0 0 48 46"><g><g clip-path="url(#clip-47BDF588-88B1-4BE5-9135-0A0F2E1A25D0)"><path fill="#8dc027" d="M48 6.838v.701c-.164.478-.496.818-.962 1.04l-.231.13c-3.854 2.164-6.954 5.06-9.258 8.724-1.198 1.902-2.171 3.911-3.151 5.918-.82 1.674-1.656 3.34-2.736 4.881-1.473 2.108-3.347 3.773-5.774 4.839-2.46 1.084-5.069 1.47-7.746 1.581a41.113 41.113 0 0 1-3.79-.042 57.636 57.636 0 0 1-4.4-.404c-.228-.029-.308.032-.353.229-.5 2.103-.78 4.231-.838 6.388-.05 1.716.003 3.43.225 5.134h-6.02l-.018-.324c-.013-1.445.089-2.881.242-4.317.218-2.05.596-4.07 1.114-6.07.593-2.305 1.426-4.534 2.349-6.736a31.017 31.017 0 0 1 5.33-8.539c.945-1.075 2.936-3.227 8.42-7.12 6.532-4.633 8.357-4.89 9.717-4.81.557.032 3.11.184 3.575 1.512.256.728-.213 1.548-.673 1.987-.865.824-2.373.968-3.385.213-1.128-.845-.94-2.296-.93-2.359-.58 1.561-.285 3.208.766 4.088 1.582 1.322 4.28.417 5.585-1.02.937-1.03 1.564-2.781.83-4.168-.81-1.53-2.844-1.798-4.208-1.98-3.036-.403-5.496.614-7.298 1.384-1.474.63-3.12 1.736-6.42 3.947-2.19 1.468-3.28 2.2-4.518 3.192-1.142.92-2.954 2.388-4.867 4.595-2.347 2.699-2.38 3.66-4.625 6.726-.002 0-2 2.73-2.055 3.51l-.069.162-.084.035-.085-.217c-.167-.546-.342-1.09-.493-1.64C.552 25.836.14 23.63.03 21.38c-.078-1.606-.01-3.21.27-4.8.432-2.462 1.306-4.76 2.732-6.854 2.02-2.973 4.794-5.119 8.078-6.687C14.92 1.225 18.993.371 23.213.091a40.166 40.166 0 0 1 4.155-.065c1.492.054 2.978.16 4.456.352 2.711.352 5.37.939 7.951 1.819 2.647.9 5.152 2.072 7.432 3.665.369.257.653.557.793.976"/></g></g></svg>